<svg width="755" height="575" viewBox="0 0 755 575" fill="none" xmlns="http://www.w3.org/2000/svg">
<path d="M753.916 501.763H7.83023C7.63381 501.816 7.42705 501.825 7.22622 501.79C7.02539 501.755 6.83598 501.677 6.6729 501.563C6.50981 501.448 6.37751 501.299 6.28641 501.129C6.19531 500.958 6.14789 500.77 6.14789 500.58C6.14789 500.389 6.19531 500.201 6.28641 500.031C6.37751 499.86 6.50981 499.712 6.6729 499.597C6.83598 499.483 7.02539 499.405 7.22622 499.37C7.42705 499.335 7.63381 499.344 7.83023 499.396H754.043C754.318 499.47 754.561 499.625 754.734 499.839C754.906 500.052 755 500.312 755 500.58C755 500.847 754.906 501.108 754.734 501.321C754.561 501.535 754.318 501.69 754.043 501.763H753.916Z" fill="#D1D3D4"/>
<path d="M710.438 18.2735H51.3085V377.305H710.438V18.2735Z" fill="white"/>
<path d="M710.463 378.536H51.3085C51.1352 378.536 50.9635 378.504 50.8034 378.442C50.6433 378.38 50.4978 378.29 50.3752 378.175C50.2527 378.061 50.1554 377.925 50.0891 377.776C50.0228 377.627 49.9886 377.467 49.9886 377.305V18.2735C49.9886 17.947 50.1277 17.634 50.3752 17.4031C50.6227 17.1723 50.9584 17.0426 51.3085 17.0426H710.463C710.635 17.0426 710.805 17.0746 710.964 17.1367C711.123 17.1989 711.267 17.2899 711.387 17.4045C711.508 17.5192 711.603 17.655 711.666 17.8042C711.73 17.9535 711.761 18.113 711.757 18.2735V377.305C711.757 377.627 711.622 377.937 711.38 378.167C711.138 378.397 710.808 378.53 710.463 378.536ZM52.6283 376.169H709.118V19.5043H52.6029L52.6283 376.169Z" fill="#D1D3D4"/>
<path d="M710.438 1.23083H51.3085V18.2735H710.438V1.23083Z" fill="white"/>
<path d="M710.463 19.5043H51.3085C50.9584 19.5043 50.6227 19.3747 50.3752 19.1438C50.1277 18.913 49.9886 18.5999 49.9886 18.2735V1.23086C49.9886 0.904414 50.1277 0.591334 50.3752 0.360503C50.6227 0.129673 50.9584 2.23156e-08 51.3085 2.23156e-08H710.463C710.635 -3.08422e-05 710.805 0.0319549 710.964 0.0940965C711.123 0.156238 711.267 0.247286 711.387 0.361903C711.508 0.47652 711.603 0.612406 711.666 0.761612C711.73 0.910818 711.761 1.07035 711.757 1.23086V18.2735C711.757 18.5959 711.622 18.9054 711.38 19.1356C711.138 19.3657 710.808 19.4981 710.463 19.5043ZM52.6283 17.1373H709.118V2.43804H52.6029L52.6283 17.1373Z" fill="#D1D3D4"/>
<path d="M402.384 243.852H366.545V351.126H402.384V243.852Z" fill="white"/>
<path d="M402.384 352.333H366.545C366.373 352.336 366.202 352.307 366.042 352.248C365.882 352.188 365.736 352.1 365.613 351.988C365.49 351.875 365.393 351.741 365.326 351.593C365.26 351.445 365.225 351.286 365.225 351.126V243.852C365.225 243.525 365.364 243.212 365.612 242.981C365.859 242.75 366.195 242.621 366.545 242.621H402.384C402.734 242.621 403.069 242.75 403.317 242.981C403.564 243.212 403.704 243.525 403.704 243.852V351.126C403.704 351.286 403.669 351.445 403.603 351.593C403.536 351.741 403.438 351.875 403.315 351.988C403.193 352.1 403.047 352.188 402.887 352.248C402.727 352.307 402.556 352.336 402.384 352.333ZM367.865 349.966H401.089V245.059H367.814L367.865 349.966Z" fill="#D1D3D4"/>
<path d="M229.79 377.305C229.79 377.305 237.633 336.592 267.126 325.42C296.619 314.247 312.635 337.255 312.635 337.255C312.635 337.255 320.25 299.382 367.104 299.382C413.958 299.382 424.77 329.159 424.77 329.159C424.77 329.159 434.39 311.17 455.532 312.401C476.675 313.632 479.898 338.438 479.898 338.438C486.053 335.894 492.71 334.579 499.442 334.579C506.174 334.579 512.831 335.894 518.986 338.438C539.291 347.244 547.844 377.423 547.844 377.423L229.79 377.305Z" fill="white"/>
<path d="M547.844 378.536H229.79C229.596 378.533 229.405 378.492 229.23 378.414C229.055 378.337 228.9 378.225 228.775 378.086C228.545 377.802 228.445 377.445 228.496 377.092C228.826 375.388 236.821 335.574 266.568 324.283C274.277 321.039 282.924 320.28 291.146 322.128C299.368 323.975 306.697 328.323 311.975 334.485C314.742 325.917 326.823 298.128 367.053 298.128C406.572 298.128 421.166 319.431 424.897 326.532C428.323 321.68 438.298 310.176 455.583 311.217C474.314 312.306 479.67 330.958 480.964 336.616C487.116 334.279 493.712 333.133 500.353 333.247C506.993 333.361 513.54 334.733 519.595 337.278C540.23 346.202 548.783 375.79 549.139 377.044C549.19 377.223 549.197 377.41 549.157 377.59C549.117 377.771 549.033 377.941 548.91 378.086C548.786 378.237 548.623 378.357 548.438 378.435C548.252 378.513 548.048 378.548 547.844 378.536ZM231.389 376.169H546.118C544.062 369.991 535.407 346.865 518.478 339.527C512.477 337.072 505.995 335.804 499.442 335.804C492.889 335.804 486.407 337.072 480.406 339.527C480.223 339.62 480.018 339.669 479.81 339.669C479.601 339.669 479.396 339.62 479.213 339.527C479.029 339.435 478.87 339.303 478.751 339.143C478.632 338.982 478.555 338.797 478.528 338.604C478.528 338.367 475.177 314.934 455.38 313.726C435.583 312.519 425.963 329.633 425.887 329.798C425.766 330.011 425.582 330.186 425.357 330.304C425.132 330.421 424.875 330.476 424.618 330.461C424.363 330.45 424.117 330.367 423.913 330.223C423.71 330.08 423.557 329.882 423.476 329.656C423.349 329.349 412.257 300.684 367.027 300.684C348.093 300.684 333.397 306.862 323.346 319.052C318.83 324.53 315.588 330.827 313.828 337.539C313.782 337.777 313.661 337.996 313.48 338.169C313.299 338.342 313.067 338.461 312.813 338.509C312.555 338.56 312.286 338.538 312.042 338.445C311.798 338.352 311.589 338.193 311.442 337.988C306.708 331.6 299.718 326.965 291.692 324.893C283.667 322.82 275.116 323.442 267.532 326.65C242.253 336.166 233.141 368.807 231.389 376.074V376.169Z" fill="#D1D3D4"/>
<path d="M403.45 260.871H364.54L359.87 243.449H408.12L403.45 260.871Z" fill="white"/>
<path d="M403.348 262.101H364.54C364.248 262.104 363.963 262.014 363.733 261.846C363.503 261.679 363.34 261.443 363.271 261.178L358.601 243.757C358.549 243.575 358.543 243.384 358.582 243.2C358.622 243.015 358.706 242.841 358.829 242.692C358.956 242.55 359.116 242.436 359.296 242.358C359.476 242.281 359.672 242.241 359.87 242.242H408.094C408.293 242.241 408.489 242.281 408.669 242.358C408.849 242.436 409.008 242.55 409.135 242.692C409.253 242.844 409.335 243.017 409.374 243.201C409.414 243.385 409.41 243.575 409.364 243.757L404.693 261.178C404.622 261.456 404.448 261.7 404.202 261.869C403.956 262.038 403.653 262.12 403.348 262.101ZM365.454 259.734H402.333L406.343 244.751H361.545L365.454 259.734Z" fill="#D1D3D4"/>
<path d="M340.377 189.031C340.377 189.031 320.072 200.866 312.889 220.726C305.706 240.585 321.976 278.836 321.976 278.836L359.058 241.343L340.377 189.031Z" fill="white"/>
<path d="M321.975 280.067H321.722C321.504 280.03 321.301 279.941 321.131 279.808C320.962 279.675 320.833 279.503 320.757 279.31C320.072 277.724 304.513 240.372 311.671 220.371C318.828 200.369 338.829 188.51 339.59 188.013C339.763 187.932 339.955 187.89 340.149 187.89C340.342 187.89 340.534 187.932 340.707 188.013C340.896 188.073 341.067 188.172 341.208 188.303C341.349 188.435 341.455 188.595 341.519 188.771L360.2 240.94C360.276 241.15 360.291 241.375 360.242 241.591C360.192 241.808 360.082 242.008 359.921 242.171L322.813 279.665C322.709 279.78 322.581 279.875 322.438 279.945C322.294 280.014 322.137 280.055 321.975 280.067ZM339.742 190.948C335.072 194.026 319.97 204.938 314.183 221.128C308.219 237.863 319.437 268.729 322.483 276.564L357.636 241.059L339.742 190.948Z" fill="#D1D3D4"/>
<path d="M428.552 189.031C428.552 189.031 448.857 200.866 456.04 220.726C463.223 240.585 446.953 278.836 446.953 278.836L409.871 241.343L428.552 189.031Z" fill="white"/>
<path d="M446.979 280.067C446.796 280.07 446.615 280.036 446.448 279.966C446.282 279.897 446.133 279.794 446.014 279.665L408.907 242.171C408.746 242.008 408.635 241.808 408.586 241.591C408.537 241.375 408.551 241.15 408.628 240.94L427.308 188.652C427.372 188.476 427.478 188.317 427.619 188.185C427.76 188.054 427.932 187.954 428.12 187.895C428.294 187.814 428.485 187.772 428.679 187.772C428.873 187.772 429.064 187.814 429.237 187.895C430.1 188.392 450.126 200.251 457.284 220.252C464.441 240.254 448.857 277.606 448.197 279.191C448.113 279.384 447.978 279.555 447.805 279.687C447.632 279.819 447.427 279.909 447.207 279.949L446.979 280.067ZM411.445 241.035L446.598 276.54C449.644 268.705 460.862 237.816 454.898 221.104C449.111 204.914 434.009 194.002 429.364 190.925L411.445 241.035Z" fill="#D1D3D4"/>
<path d="M417.333 250.053C427.486 227.424 433.831 194.617 433.831 158.141C433.806 102.871 401.14 74.0171 388.703 64.9987C387.361 64.0139 385.703 63.4785 383.995 63.4785C382.287 63.4785 380.629 64.0139 379.287 64.9987C366.85 73.9224 334.133 102.729 334.133 158.047C334.133 194.523 340.529 227.33 350.656 249.959C350.656 249.959 360.809 254.693 383.982 254.693C407.155 254.693 417.333 250.053 417.333 250.053Z" fill="white"/>
<path d="M383.982 256.018C360.733 256.018 350.504 251.284 350.073 251.142C349.796 251.013 349.579 250.794 349.463 250.527C338.879 226.856 332.839 193.268 332.839 158.212C332.839 103.013 364.768 74.0645 378.525 64.1939C380.107 63.0557 382.048 62.4384 384.046 62.4384C386.043 62.4384 387.985 63.0557 389.566 64.1939C403.272 74.0645 435.253 102.99 435.253 158.212C435.253 193.363 429.186 227.022 418.628 250.527C418.503 250.789 418.289 251.005 418.019 251.142C417.486 251.331 407.257 256.018 383.982 256.018ZM351.672 249.13C353.804 249.982 364.007 253.58 383.982 253.58C403.957 253.58 414.186 249.982 416.318 249.13C426.623 225.886 432.537 192.747 432.537 158.141C432.537 104.007 401.318 75.6977 387.916 66.0402C386.786 65.2471 385.409 64.8182 383.995 64.8182C382.58 64.8182 381.204 65.2471 380.073 66.0402C366.672 75.7214 335.453 103.913 335.453 158.141C335.453 192.818 341.367 225.957 351.672 249.13Z" fill="#D1D3D4"/>
<path d="M379.287 64.9987C364.043 76.3265 352.116 91.0641 344.616 107.842H423.298C415.819 91.0719 403.919 76.3351 388.703 64.9987C387.361 64.0139 385.703 63.4785 383.995 63.4785C382.287 63.4785 380.629 64.0139 379.287 64.9987Z" fill="white"/>
<path d="M423.374 109.168H344.692C344.476 109.169 344.262 109.12 344.072 109.025C343.881 108.93 343.719 108.792 343.6 108.623C343.48 108.454 343.406 108.26 343.384 108.058C343.362 107.856 343.392 107.652 343.473 107.463C351.023 90.4889 363.066 75.5774 378.474 64.1229C380.056 62.9847 381.997 62.3673 383.995 62.3673C385.993 62.3673 387.934 62.9847 389.515 64.1229C404.952 75.5687 417.021 90.4811 424.592 107.463C424.673 107.652 424.704 107.856 424.682 108.058C424.66 108.26 424.586 108.454 424.465 108.623C424.345 108.79 424.183 108.927 423.992 109.022C423.802 109.117 423.59 109.167 423.374 109.168ZM346.595 106.8H421.369C413.963 90.8852 402.475 76.9121 387.916 66.1112C386.786 65.3181 385.409 64.8892 383.995 64.8892C382.58 64.8892 381.204 65.3181 380.073 66.1112C365.523 76.8961 354.028 90.8423 346.595 106.729V106.8Z" fill="#D1D3D4"/>
<path d="M385.937 177.409C402.73 177.409 416.343 164.713 416.343 149.052C416.343 133.391 402.73 120.695 385.937 120.695C369.143 120.695 355.53 133.391 355.53 149.052C355.53 164.713 369.143 177.409 385.937 177.409Z" fill="white"/>
<path d="M385.937 178.616C379.662 178.616 373.528 176.881 368.31 173.63C363.093 170.379 359.026 165.758 356.625 160.351C354.224 154.945 353.595 148.995 354.819 143.256C356.044 137.517 359.065 132.244 363.502 128.107C367.939 123.969 373.593 121.151 379.747 120.009C385.901 118.867 392.281 119.453 398.078 121.693C403.875 123.932 408.83 127.724 412.316 132.59C415.803 137.456 417.663 143.176 417.663 149.028C417.657 156.874 414.312 164.396 408.363 169.943C402.415 175.491 394.349 178.61 385.937 178.616ZM385.937 121.807C380.178 121.807 374.548 123.4 369.76 126.385C364.972 129.369 361.24 133.611 359.038 138.573C356.835 143.535 356.26 148.995 357.385 154.263C358.511 159.53 361.286 164.368 365.36 168.164C369.434 171.96 374.624 174.543 380.273 175.588C385.922 176.633 391.776 176.092 397.095 174.034C402.414 171.975 406.959 168.492 410.155 164.024C413.351 159.556 415.054 154.304 415.049 148.934C415.009 141.758 411.924 134.888 406.468 129.828C401.013 124.767 393.631 121.926 385.937 121.926V121.807Z" fill="#D1D3D4"/>
<path d="M385.937 166.544C396.296 166.544 404.693 158.713 404.693 149.052C404.693 139.391 396.296 131.56 385.937 131.56C375.577 131.56 367.18 139.391 367.18 149.052C367.18 158.713 375.577 166.544 385.937 166.544Z" fill="white"/>
<path d="M385.937 167.775C381.966 167.775 378.084 166.677 374.783 164.62C371.481 162.562 368.908 159.638 367.388 156.217C365.869 152.796 365.471 149.031 366.246 145.399C367.02 141.767 368.932 138.431 371.74 135.813C374.548 133.194 378.125 131.411 382.02 130.689C385.914 129.966 389.951 130.337 393.62 131.754C397.288 133.171 400.424 135.571 402.63 138.65C404.836 141.729 406.013 145.349 406.013 149.052C406.013 154.018 403.898 158.78 400.133 162.291C396.368 165.803 391.261 167.775 385.937 167.775ZM385.937 132.79C382.482 132.79 379.105 133.746 376.232 135.537C373.36 137.327 371.122 139.872 369.801 142.849C368.48 145.826 368.136 149.102 368.812 152.261C369.487 155.421 371.153 158.323 373.598 160.599C376.043 162.876 379.156 164.425 382.545 165.051C385.934 165.677 389.446 165.351 392.637 164.114C395.827 162.878 398.553 160.787 400.468 158.106C402.384 155.425 403.404 152.274 403.399 149.052C403.392 144.737 401.549 140.601 398.275 137.552C395.001 134.503 390.563 132.79 385.937 132.79Z" fill="#D1D3D4"/>
<path d="M400.81 148.626C400.504 148.624 400.208 148.52 399.975 148.334C399.743 148.148 399.589 147.89 399.541 147.608C399.338 144.439 397.804 141.472 395.272 139.35C392.74 137.228 389.413 136.121 386.013 136.27C385.846 136.281 385.679 136.261 385.52 136.212C385.362 136.162 385.215 136.084 385.089 135.982C384.835 135.776 384.678 135.483 384.655 135.169C384.631 134.855 384.742 134.546 384.964 134.308C385.185 134.071 385.498 133.925 385.835 133.903C389.865 133.756 393.8 135.064 396.821 137.555C399.843 140.047 401.717 143.529 402.054 147.277C402.097 147.584 402.01 147.895 401.811 148.142C401.612 148.39 401.316 148.555 400.988 148.602L400.81 148.626Z" fill="#D1D3D4"/>
<path d="M379.337 137.951C379.142 137.953 378.949 137.914 378.773 137.836C378.597 137.758 378.443 137.643 378.322 137.501C378.124 137.25 378.037 136.938 378.079 136.63C378.122 136.321 378.291 136.039 378.551 135.844C379.643 135.091 380.914 134.596 382.256 134.4C382.423 134.38 382.592 134.392 382.755 134.433C382.917 134.475 383.068 134.547 383.201 134.643C383.333 134.74 383.443 134.861 383.525 134.998C383.607 135.135 383.659 135.286 383.678 135.442C383.714 135.751 383.621 136.062 383.418 136.309C383.214 136.556 382.916 136.72 382.586 136.767C381.672 136.891 380.802 137.215 380.048 137.714C379.845 137.862 379.595 137.945 379.337 137.951Z" fill="#D1D3D4"/>
<path d="M413.653 242.857C413.519 242.882 413.381 242.882 413.247 242.857C412.927 242.76 412.662 242.548 412.51 242.269C412.358 241.989 412.331 241.664 412.435 241.366C417.682 225.838 421.92 210.029 425.125 194.026C425.153 193.872 425.213 193.725 425.302 193.594C425.392 193.463 425.509 193.349 425.646 193.261C425.783 193.173 425.938 193.111 426.102 193.08C426.265 193.048 426.434 193.048 426.598 193.079C426.927 193.136 427.218 193.313 427.408 193.57C427.599 193.827 427.672 194.144 427.613 194.452C424.416 210.582 420.178 226.517 414.922 242.171C414.813 242.394 414.632 242.58 414.405 242.703C414.177 242.826 413.915 242.88 413.653 242.857Z" fill="white"/>
<path d="M388.805 286.908C388.468 286.908 388.145 286.783 387.907 286.561C387.669 286.339 387.536 286.038 387.536 285.724V263.261C387.536 262.947 387.669 262.646 387.907 262.424C388.145 262.202 388.468 262.078 388.805 262.078C389.141 262.078 389.464 262.202 389.702 262.424C389.94 262.646 390.074 262.947 390.074 263.261V285.724C390.074 286.038 389.94 286.339 389.702 286.561C389.464 286.783 389.141 286.908 388.805 286.908Z" fill="#D1D3D4"/>
<path d="M375.809 298.672C375.475 298.666 375.156 298.539 374.919 298.319C374.683 298.098 374.547 297.801 374.54 297.489V273.984C374.547 273.672 374.683 273.374 374.919 273.154C375.156 272.933 375.475 272.806 375.809 272.8C376.146 272.8 376.469 272.925 376.707 273.147C376.945 273.369 377.078 273.67 377.078 273.984V297.489C377.078 297.802 376.945 298.103 376.707 298.325C376.469 298.547 376.146 298.672 375.809 298.672Z" fill="#D1D3D4"/>
<path d="M298.295 356.57H298.066C297.901 356.541 297.743 356.483 297.602 356.397C297.461 356.311 297.339 356.2 297.245 356.07C297.15 355.94 297.085 355.794 297.051 355.64C297.018 355.486 297.018 355.327 297.051 355.173C297.051 354.7 299.589 343.078 310.63 337.704C318.625 333.799 328.854 334.32 341.088 339.267C341.258 339.317 341.415 339.399 341.548 339.51C341.682 339.62 341.789 339.755 341.862 339.907C341.936 340.058 341.975 340.222 341.976 340.389C341.977 340.555 341.94 340.72 341.869 340.872C341.797 341.024 341.691 341.161 341.559 341.272C341.427 341.384 341.271 341.469 341.102 341.52C340.932 341.572 340.753 341.59 340.576 341.573C340.398 341.556 340.227 341.504 340.072 341.421C328.625 336.687 319.133 336.237 311.848 339.787C302 344.521 299.589 355.528 299.564 355.647C299.504 355.916 299.343 356.156 299.111 356.325C298.878 356.494 298.589 356.581 298.295 356.57Z" fill="#D1D3D4"/>
<path d="M442.461 342.486C442.283 342.484 442.107 342.447 441.945 342.378C441.784 342.308 441.639 342.208 441.522 342.083C423.476 323.479 409.82 331.053 409.694 331.124C409.553 331.21 409.395 331.268 409.23 331.296C409.064 331.323 408.895 331.319 408.731 331.284C408.567 331.248 408.413 331.182 408.278 331.09C408.142 330.997 408.028 330.88 407.942 330.745C407.772 330.474 407.722 330.152 407.803 329.847C407.883 329.542 408.088 329.278 408.374 329.112C408.983 328.757 423.958 320.449 443.4 340.497C443.519 340.608 443.613 340.738 443.678 340.883C443.742 341.027 443.775 341.182 443.775 341.338C443.775 341.494 443.742 341.649 443.678 341.793C443.613 341.937 443.519 342.068 443.4 342.178C443.138 342.385 442.804 342.494 442.461 342.486Z" fill="#D1D3D4"/>
<path d="M529.747 104.504H457.817C457.48 104.504 457.157 104.38 456.919 104.158C456.681 103.936 456.548 103.635 456.548 103.321C456.548 103.007 456.681 102.706 456.919 102.484C457.157 102.262 457.48 102.137 457.817 102.137H529.747C530.084 102.137 530.407 102.262 530.645 102.484C530.883 102.706 531.016 103.007 531.016 103.321C531.016 103.635 530.883 103.936 530.645 104.158C530.407 104.38 530.084 104.504 529.747 104.504Z" fill="#D1D3D4"/>
<path d="M529.747 119.725H457.817C457.48 119.725 457.157 119.6 456.919 119.378C456.681 119.156 456.548 118.855 456.548 118.541C456.554 118.229 456.69 117.931 456.926 117.711C457.163 117.49 457.482 117.364 457.817 117.357H529.747C530.084 117.357 530.407 117.482 530.645 117.704C530.883 117.926 531.016 118.227 531.016 118.541C531.016 118.855 530.883 119.156 530.645 119.378C530.407 119.6 530.084 119.725 529.747 119.725Z" fill="#D1D3D4"/>
<path d="M529.747 134.968H457.817C457.482 134.962 457.163 134.835 456.926 134.615C456.69 134.394 456.554 134.097 456.548 133.785C456.548 133.471 456.681 133.17 456.919 132.948C457.157 132.726 457.48 132.601 457.817 132.601H529.747C530.084 132.601 530.407 132.726 530.645 132.948C530.883 133.17 531.016 133.471 531.016 133.785C531.016 134.099 530.883 134.4 530.645 134.622C530.407 134.843 530.084 134.968 529.747 134.968Z" fill="#D1D3D4"/>
<path d="M504.239 150.212H457.817C457.48 150.212 457.157 150.087 456.919 149.865C456.681 149.643 456.548 149.342 456.548 149.028C456.548 148.714 456.681 148.413 456.919 148.191C457.157 147.97 457.48 147.845 457.817 147.845H504.239C504.576 147.845 504.898 147.97 505.136 148.191C505.374 148.413 505.508 148.714 505.508 149.028C505.508 149.342 505.374 149.643 505.136 149.865C504.898 150.087 504.576 150.212 504.239 150.212Z" fill="#D1D3D4"/>
<path d="M396.216 295.642C395.881 295.636 395.562 295.51 395.326 295.289C395.089 295.068 394.953 294.771 394.947 294.459V284.683C394.947 284.369 395.081 284.068 395.319 283.846C395.557 283.624 395.879 283.499 396.216 283.499C396.553 283.499 396.875 283.624 397.113 283.846C397.351 284.068 397.485 284.369 397.485 284.683V294.459C397.485 294.773 397.351 295.074 397.113 295.296C396.875 295.518 396.553 295.642 396.216 295.642Z" fill="#D1D3D4"/>
<path d="M315.681 127.346H213.166C212.829 127.346 212.506 127.222 212.268 127C212.03 126.778 211.896 126.477 211.896 126.163V70.0878C211.903 69.7758 212.039 69.4783 212.275 69.2576C212.512 69.037 212.831 68.9104 213.166 68.9043C213.502 68.9043 213.825 69.029 214.063 69.2509C214.301 69.4729 214.435 69.7739 214.435 70.0878V124.979H315.681C316.018 124.979 316.34 125.104 316.578 125.326C316.816 125.548 316.95 125.849 316.95 126.163C316.95 126.477 316.816 126.778 316.578 127C316.34 127.222 316.018 127.346 315.681 127.346Z" fill="#D1D3D4"/>
<path d="M224.308 118.707C224.191 118.731 224.07 118.731 223.953 118.707C223.629 118.619 223.357 118.415 223.195 118.14C223.033 117.864 222.995 117.54 223.09 117.239C223.369 116.411 229.892 96.9063 245.298 93.1191C253.903 90.9887 256.212 94.989 258.446 98.8236C260.679 102.658 262.482 105.783 269.461 106.067H269.918C284.386 106.067 295.756 76.1711 295.858 75.8634C295.969 75.5652 296.203 75.3204 296.507 75.1828C296.658 75.1146 296.822 75.0749 296.989 75.0657C297.157 75.0566 297.324 75.0783 297.482 75.1296C297.641 75.1809 297.787 75.2608 297.912 75.3647C298.037 75.4686 298.139 75.5944 298.212 75.7351C298.285 75.8758 298.328 76.0285 298.338 76.1845C298.348 76.3406 298.324 76.4969 298.269 76.6445C297.762 77.9701 286.162 108.434 269.893 108.434H269.36C260.933 108.079 258.319 103.7 256.212 99.9598C254.106 96.2199 252.608 93.7582 246.06 95.3914C231.998 98.8473 225.755 117.736 225.628 117.926C225.533 118.174 225.351 118.387 225.112 118.528C224.873 118.67 224.59 118.733 224.308 118.707Z" fill="#D1D3D4"/>
<path d="M487.284 301.015C482.887 301.015 478.588 299.799 474.932 297.521C471.275 295.243 468.426 292.004 466.743 288.215C465.06 284.426 464.62 280.257 465.478 276.235C466.335 272.213 468.453 268.518 471.563 265.618C474.672 262.718 478.634 260.744 482.947 259.943C487.26 259.143 491.73 259.554 495.793 261.123C499.856 262.693 503.328 265.351 505.771 268.76C508.214 272.17 509.518 276.179 509.518 280.28C509.512 285.778 507.167 291.048 502.999 294.935C498.831 298.823 493.179 301.009 487.284 301.015ZM487.284 261.912C483.389 261.912 479.581 262.989 476.342 265.008C473.103 267.026 470.578 269.895 469.088 273.251C467.597 276.607 467.207 280.301 467.967 283.864C468.727 287.427 470.603 290.7 473.357 293.269C476.112 295.837 479.621 297.587 483.442 298.295C487.263 299.004 491.223 298.64 494.822 297.25C498.421 295.86 501.497 293.506 503.661 290.485C505.825 287.464 506.98 283.913 506.98 280.28C506.974 275.411 504.896 270.742 501.204 267.299C497.512 263.856 492.506 261.918 487.284 261.912Z" fill="#D1D3D4"/>
<path d="M504.569 292.518C504.314 292.516 504.066 292.442 503.858 292.305L486.574 281.251C486.4 281.146 486.258 281.003 486.16 280.833C486.062 280.663 486.013 280.473 486.015 280.28V260.729C486.022 260.417 486.158 260.119 486.394 259.898C486.631 259.678 486.95 259.551 487.284 259.545C487.621 259.545 487.944 259.67 488.182 259.892C488.42 260.114 488.553 260.415 488.553 260.729V279.665L505.305 290.364C505.527 290.508 505.694 290.715 505.781 290.955C505.868 291.194 505.87 291.453 505.788 291.694C505.706 291.934 505.543 292.144 505.324 292.293C505.104 292.441 504.84 292.52 504.569 292.518Z" fill="#D1D3D4"/>
<path d="M467.639 285.63C467.35 285.631 467.069 285.54 466.843 285.372C466.617 285.204 466.459 284.97 466.395 284.707C466.358 284.556 466.354 284.399 466.382 284.247C466.411 284.094 466.472 283.949 466.562 283.819C466.652 283.689 466.769 283.576 466.906 283.489C467.043 283.402 467.197 283.341 467.36 283.31L487.005 279.12C487.172 279.086 487.344 279.083 487.512 279.111C487.68 279.139 487.841 279.197 487.984 279.283C488.128 279.369 488.252 279.48 488.35 279.61C488.448 279.741 488.517 279.888 488.554 280.044C488.59 280.199 488.594 280.36 488.564 280.516C488.534 280.673 488.471 280.823 488.379 280.957C488.287 281.091 488.168 281.207 488.028 281.298C487.888 281.389 487.73 281.453 487.564 281.487L467.918 285.653L467.639 285.63Z" fill="#D1D3D4"/>
<path d="M288.371 283.547H258.37C258.033 283.547 257.71 283.422 257.472 283.2C257.234 282.978 257.101 282.677 257.101 282.363C257.101 282.049 257.234 281.748 257.472 281.526C257.71 281.304 258.033 281.18 258.37 281.18H288.371C288.707 281.18 289.03 281.304 289.268 281.526C289.506 281.748 289.64 282.049 289.64 282.363C289.64 282.677 289.506 282.978 289.268 283.2C289.03 283.422 288.707 283.547 288.371 283.547Z" fill="#D1D3D4"/>
<path d="M277.431 295.642H258.37C258.033 295.642 257.71 295.518 257.472 295.296C257.234 295.074 257.101 294.773 257.101 294.459C257.101 294.145 257.234 293.844 257.472 293.622C257.71 293.4 258.033 293.275 258.37 293.275H277.431C277.768 293.275 278.091 293.4 278.329 293.622C278.567 293.844 278.7 294.145 278.7 294.459C278.694 294.771 278.558 295.068 278.321 295.289C278.085 295.51 277.766 295.636 277.431 295.642Z" fill="#D1D3D4"/>
<path d="M581.729 126.305C580.16 125.229 578.919 123.789 578.131 122.128C577.343 120.467 577.035 118.643 577.236 116.837C575.255 117.241 573.185 117.023 571.35 116.219C569.514 115.414 568.015 114.067 567.084 112.387C565.316 108.932 564.825 105.028 565.688 101.285C562.598 99.8897 560.016 97.6779 558.263 94.9249C556.51 92.172 555.664 88.9993 555.829 85.8012C555.993 82.6032 557.163 79.5209 559.191 76.9376C561.219 74.3543 564.017 72.3839 567.236 71.2713C566.688 71.0406 566.208 70.6898 565.837 70.2488C565.465 69.8078 565.214 69.2897 565.104 68.7386C562.819 61.6375 567.337 53.6843 574.292 50.1574C577.856 48.5335 581.751 47.6365 585.716 47.5263C589.681 47.4161 593.626 48.0952 597.287 49.5183C597.08 48.5768 597.166 47.5997 597.535 46.7023C597.904 45.8048 598.54 45.0244 599.369 44.4528C601.045 43.3364 602.972 42.5916 605.003 42.2752C615.208 40.214 625.832 40.9288 635.613 44.3345C640.258 45.9677 645.36 49.2579 644.979 53.8026C648.014 53.3199 651.134 53.7063 653.929 54.9108C656.723 56.1153 659.06 58.0814 660.633 60.5498C662.205 63.0182 662.938 65.873 662.735 68.7378C662.532 71.6026 661.403 74.3428 659.497 76.5971C661.787 78.6429 663.443 81.2264 664.291 84.0757C665.139 86.9251 665.148 89.9351 664.317 92.7888C663.486 95.6425 661.845 98.2345 659.568 100.292C657.29 102.35 654.46 103.797 651.375 104.481C651.705 103.416 653.456 104.362 653.913 105.38C656.934 112.481 651.375 120.79 644.294 124.766C637.212 128.743 626.907 129.5 620.994 123.961C621.024 125.797 620.389 127.588 619.192 129.045C617.994 130.501 616.303 131.538 614.394 131.986C610.545 132.794 606.539 132.688 602.744 131.678C598.937 130.944 595.536 129.027 591.856 128.246C588.175 127.465 585.054 128.53 581.729 126.305Z" fill="white"/>
<path d="M609.876 133.643C607.354 133.581 604.846 133.28 602.389 132.743C600.374 132.293 598.404 131.683 596.501 130.921C594.855 130.263 593.158 129.725 591.424 129.311C590.295 129.106 589.148 128.995 587.998 128.98C585.534 129.104 583.091 128.5 581.018 127.252C579.49 126.204 578.238 124.845 577.358 123.278C576.479 121.711 575.994 119.978 575.942 118.21C573.908 118.298 571.89 117.843 570.123 116.9C568.357 115.957 566.915 114.564 565.967 112.884C564.131 109.485 563.534 105.621 564.266 101.877C561.268 100.345 558.774 98.0781 557.055 95.3216C555.336 92.5651 554.457 89.4233 554.512 86.2349C554.567 83.0466 555.554 79.9326 557.367 77.229C559.179 74.5253 561.749 72.3344 564.799 70.8926C564.382 70.311 564.065 69.6721 563.86 68.999C561.525 61.8979 565.814 53.0452 573.657 49.0449C577.075 47.4462 580.803 46.5069 584.619 46.2832C588.435 46.0595 592.261 46.556 595.866 47.743C596.174 46.0629 597.12 44.5422 598.531 43.4587C600.356 42.2231 602.47 41.4116 604.699 41.0917C615.138 38.9778 626.008 39.7007 636.019 43.1747C642.035 45.2813 645.715 48.7135 646.172 52.5244C649.262 52.32 652.351 52.9282 655.088 54.2801C657.825 55.6319 660.101 57.673 661.656 60.1712C663.21 62.6694 663.982 65.5244 663.883 68.4115C663.785 71.2986 662.819 74.1019 661.096 76.5025C663.148 78.5628 664.641 81.0515 665.451 83.7603C666.26 86.4692 666.362 89.3194 665.749 92.0725C665.135 94.8257 663.823 97.4017 661.923 99.5852C660.023 101.769 657.59 103.496 654.827 104.623C654.897 104.736 654.956 104.855 655.005 104.978C658.355 112.955 652.289 121.665 644.852 125.784C638.151 129.524 628.583 130.707 622.009 126.376C621.49 127.986 620.547 129.449 619.266 130.632C617.984 131.814 616.405 132.679 614.674 133.146C613.11 133.534 611.493 133.702 609.876 133.643V133.643ZM577.236 115.487C577.524 115.479 577.805 115.572 578.023 115.748C578.186 115.872 578.313 116.033 578.393 116.215C578.472 116.397 578.502 116.594 578.48 116.789C578.301 118.399 578.574 120.025 579.272 121.507C579.971 122.988 581.071 124.275 582.465 125.24V125.24C584.154 126.252 586.146 126.734 588.15 126.613C589.464 126.625 590.773 126.76 592.059 127.015C593.899 127.447 595.698 128.017 597.44 128.719C599.202 129.435 601.028 130.005 602.897 130.423C606.483 131.38 610.267 131.494 613.912 130.755C615.507 130.396 616.931 129.557 617.964 128.368C618.996 127.178 619.579 125.704 619.623 124.174C619.595 123.93 619.649 123.683 619.776 123.467C619.903 123.251 620.097 123.077 620.334 122.967C620.571 122.862 620.838 122.828 621.097 122.871C621.357 122.913 621.595 123.03 621.78 123.204C627.39 128.435 637.009 127.465 643.558 123.819C650.106 120.174 655.36 112.41 652.619 105.877C652.551 105.743 652.457 105.623 652.34 105.522L651.603 105.712C651.387 105.761 651.161 105.756 650.947 105.698C650.733 105.64 650.539 105.53 650.385 105.38C650.233 105.227 650.125 105.04 650.072 104.837C650.019 104.634 650.022 104.422 650.081 104.22C650.188 103.852 650.418 103.526 650.737 103.287C651.056 103.049 651.449 102.912 651.857 102.895C652.084 102.86 652.316 102.86 652.543 102.895C655.046 102.045 657.3 100.658 659.122 98.844C660.943 97.0304 662.28 94.842 663.025 92.4563C663.752 89.8034 663.72 87.019 662.931 84.3814C662.143 81.7438 660.626 79.3453 658.533 77.4256C658.314 77.218 658.181 76.9447 658.158 76.6543C658.134 76.364 658.222 76.0753 658.406 75.8397C660.118 73.7672 661.123 71.2631 661.292 68.6517C661.46 66.0403 660.784 63.4418 659.351 61.1927C657.919 58.9436 655.795 57.1473 653.255 56.0365C650.715 54.9258 647.876 54.5516 645.106 54.9625C644.917 54.9871 644.725 54.9725 644.543 54.9199C644.361 54.8673 644.194 54.7779 644.053 54.6581C643.913 54.5383 643.802 54.391 643.73 54.2267C643.657 54.0625 643.624 53.8854 643.634 53.708C643.938 49.8734 639.42 46.8672 635.08 45.3523C625.533 42.0326 615.166 41.3343 605.206 43.3404C603.378 43.6206 601.643 44.2843 600.13 45.2813C599.507 45.7144 599.023 46.299 598.732 46.9711C598.441 47.6432 598.354 48.377 598.48 49.0922C598.546 49.3008 598.547 49.5223 598.485 49.7315C598.422 49.9408 598.297 50.1293 598.125 50.2758C597.954 50.4238 597.744 50.5262 597.516 50.572C597.288 50.6178 597.051 50.6054 596.831 50.5361C593.34 49.1669 589.576 48.5073 585.79 48.6011C582.004 48.695 578.284 49.5403 574.876 51.0805C568.048 54.5601 564.292 62.1346 566.297 68.2889C566.474 68.857 566.906 69.8511 567.566 70.0405C567.821 70.1097 568.047 70.2521 568.211 70.4475C568.375 70.6429 568.469 70.8814 568.479 71.1293C568.483 71.3791 568.404 71.6238 568.254 71.8309C568.105 72.0381 567.891 72.1979 567.642 72.2892C564.658 73.323 562.065 75.1519 560.186 77.5485C558.307 79.9451 557.224 82.8039 557.073 85.7695C556.921 88.7351 557.708 91.6768 559.334 94.2292C560.96 96.7815 563.355 98.8318 566.221 100.125C566.469 100.232 566.672 100.414 566.797 100.642C566.921 100.869 566.959 101.129 566.906 101.38C566.073 104.863 566.52 108.506 568.175 111.724C568.968 113.172 570.25 114.337 571.823 115.039C573.397 115.74 575.174 115.94 576.881 115.606C576.997 115.579 577.117 115.571 577.236 115.582V115.487Z" fill="#212121"/>
<path d="M566.322 154.141C566.322 154.141 522.971 226.667 517.158 239.354C511.346 252.042 537.083 281.511 547.032 274.363C556.982 267.214 566.322 154.141 566.322 154.141Z" fill="#00E88F"/>
<path d="M649.395 532.393C649.395 532.393 651.096 543.045 648.532 547.139C645.047 552.956 643 559.426 642.542 566.076C644.564 568.256 647.056 570.015 649.854 571.238C652.653 572.461 655.696 573.122 658.786 573.177C669.066 573.177 679.32 565.792 680.462 562.241C681.604 558.691 672.188 520.984 672.188 520.984L649.395 532.393Z" fill="white"/>
<path d="M658.786 574.195C655.517 574.148 652.296 573.453 649.338 572.155C646.379 570.857 643.751 568.986 641.629 566.668C641.535 566.559 641.467 566.433 641.428 566.299C641.388 566.165 641.379 566.024 641.4 565.886C641.859 559.106 643.959 552.51 647.542 546.595C649.471 543.518 648.71 535.399 648.253 532.559C648.21 532.339 648.243 532.113 648.348 531.913C648.454 531.712 648.625 531.549 648.837 531.446L671.68 519.966C671.842 519.891 672.02 519.852 672.2 519.852C672.381 519.852 672.559 519.891 672.721 519.966C672.88 520.039 673.02 520.142 673.134 520.268C673.248 520.394 673.332 520.541 673.381 520.7C674.954 527.067 682.797 558.88 681.63 562.525C680.462 566.17 669.599 574.195 658.786 574.195ZM643.761 565.65C645.67 567.607 647.987 569.181 650.571 570.276C653.154 571.371 655.95 571.963 658.786 572.017C668.609 572.017 678.406 564.916 679.345 561.862C680.005 559.779 675.817 540.322 671.401 522.522L650.639 532.985C650.994 535.565 651.883 543.92 649.522 547.684C646.206 553.204 644.238 559.338 643.761 565.65V565.65Z" fill="#212121"/>
<path d="M578.733 273.889L628.151 287.003L639.598 150.046C639.598 150.046 598.683 140.744 588.835 145.123C578.987 149.502 578.733 273.889 578.733 273.889Z" fill="#212121"/>
<path d="M628.151 288.186H627.796L578.48 275.025C578.211 274.958 577.974 274.81 577.804 274.605C577.635 274.4 577.542 274.148 577.541 273.889C577.541 252.988 578.251 148.437 588.328 144.058C598.404 139.679 638.278 148.508 639.979 148.792C640.271 148.863 640.528 149.027 640.704 149.256C640.88 149.485 640.965 149.765 640.943 150.046L629.496 287.003C629.48 287.176 629.424 287.344 629.332 287.495C629.24 287.646 629.114 287.777 628.963 287.878C628.738 288.064 628.451 288.173 628.151 288.186V288.186ZM579.926 272.99L626.933 285.464L638.177 150.946C626.146 148.295 596.805 142.85 589.267 146.212C583.556 148.815 580.129 213.293 580.003 272.99H579.926Z" fill="#212121"/>
<path d="M595.206 507.752V539.802L579.241 544.181L579.622 537.624L572.413 544.559C572.413 544.559 529.519 551.945 529.747 546.453C529.976 540.961 534.316 537.979 539.722 535.257C545.535 532.322 560.814 524.061 560.814 524.061L563.099 500.556" fill="white"/>
<path d="M537.692 549.53C534.858 549.822 531.994 549.345 529.443 548.157C529.165 547.952 528.942 547.688 528.793 547.388C528.643 547.088 528.57 546.76 528.58 546.429C528.834 540.346 533.834 536.961 539.164 534.31C544.494 531.659 556.931 524.842 559.723 523.398L561.931 500.438C561.969 500.155 562.122 499.897 562.358 499.717C562.594 499.536 562.896 499.447 563.2 499.467C563.353 499.479 563.501 499.519 563.637 499.586C563.772 499.652 563.892 499.743 563.989 499.854C564.086 499.964 564.159 500.091 564.202 500.228C564.245 500.365 564.258 500.509 564.241 500.651L561.982 524.203C561.96 524.374 561.896 524.537 561.794 524.681C561.693 524.825 561.557 524.945 561.398 525.031C561.246 525.031 546.169 533.34 540.281 536.251C534.392 539.163 531.093 541.837 530.915 546.548C532.133 548.536 550.839 547.187 571.83 543.589L578.784 536.914C578.955 536.758 579.171 536.653 579.406 536.61C579.641 536.568 579.883 536.592 580.104 536.677C580.317 536.767 580.496 536.914 580.618 537.1C580.74 537.285 580.8 537.501 580.789 537.719L580.485 542.76L594.064 539.044V507.799C594.06 507.658 594.087 507.516 594.143 507.384C594.199 507.252 594.283 507.132 594.389 507.031C594.496 506.929 594.623 506.849 594.763 506.794C594.903 506.739 595.054 506.71 595.206 506.711C595.516 506.711 595.813 506.825 596.032 507.029C596.25 507.234 596.373 507.511 596.373 507.799V539.849C596.377 540.084 596.297 540.315 596.145 540.503C595.994 540.691 595.779 540.828 595.536 540.89L579.571 545.269C579.394 545.315 579.207 545.321 579.027 545.289C578.846 545.256 578.676 545.184 578.53 545.08C578.384 544.975 578.269 544.838 578.193 544.681C578.118 544.524 578.086 544.352 578.099 544.181L578.302 540.488L573.226 545.34C573.056 545.505 572.833 545.613 572.591 545.648C561.075 547.731 549.411 549.029 537.692 549.53V549.53Z" fill="#212121"/>
<path d="M671.858 286.813L685.082 530.191C685.082 530.191 683.812 539.092 663.66 540.204C643.507 541.317 645.537 536.772 645.537 536.772L614.014 358.25L601.095 516.841L557.692 519.469L566.322 269.51L671.858 286.813Z" fill="#212121"/>
<path d="M657.746 541.553C650.487 541.553 646.197 540.583 644.725 538.642C644.286 538.092 644.095 537.404 644.192 536.725L614.547 368.192L602.44 516.912C602.416 517.198 602.281 517.465 602.062 517.666C601.843 517.866 601.553 517.985 601.247 518.001L557.768 520.581C557.592 520.593 557.414 520.57 557.248 520.513C557.081 520.456 556.93 520.366 556.804 520.25C556.677 520.138 556.577 520.002 556.511 519.851C556.446 519.7 556.416 519.537 556.423 519.374L565.053 269.416C565.057 269.244 565.101 269.076 565.182 268.923C565.263 268.769 565.378 268.633 565.521 268.525C565.663 268.417 565.829 268.339 566.007 268.297C566.184 268.255 566.37 268.249 566.55 268.279L672.086 285.653C672.371 285.697 672.631 285.832 672.821 286.035C673.011 286.238 673.119 286.497 673.127 286.766L686.274 530.144C686.274 530.76 684.625 540.228 663.685 541.364C661.528 541.482 659.548 541.553 657.746 541.553ZM646.705 537.198L646.933 537.411C647.72 538.121 650.918 539.778 663.533 539.021C682.188 538.003 683.838 530.12 683.838 530.026L670.716 287.807L567.54 270.93L558.987 518.214L599.978 515.847L612.821 358.298C612.851 358.01 612.99 357.742 613.213 357.543C613.437 357.343 613.73 357.224 614.039 357.209C614.345 357.193 614.646 357.284 614.885 357.463C615.124 357.642 615.284 357.897 615.333 358.179L646.756 536.701C646.819 536.918 646.819 537.147 646.756 537.364L646.705 537.198Z" fill="#212121"/>
<path d="M630.689 136.956C630.689 136.956 613.76 302.246 621.349 311.714C628.938 321.183 675.766 328.686 679.269 310.318C685.031 280.115 681.807 171.61 675.056 161.408C647.796 138.803 630.689 136.956 630.689 136.956Z" fill="#00E88F"/>
<path d="M566.322 154.141C566.322 154.141 542.108 304.258 546.677 308.614C551.245 312.969 576.068 318.863 582.921 314.484C589.774 310.105 599.14 137.738 599.14 137.738C586.787 140.276 575.428 145.953 566.322 154.141V154.141Z" fill="#00E88F"/>
<path d="M600.46 134.755L598.379 150.78C599.507 153.95 601.879 156.605 605.019 158.212C608.159 159.819 611.835 160.259 615.308 159.443C628.405 156.863 628.557 149.786 628.557 149.786C628.557 149.786 630.334 113.665 630.334 113.57C630.019 112.734 629.593 111.939 629.065 111.203C627.11 107.084 624.318 101.427 625.156 96.8589C625.86 93.0928 627.876 89.6484 630.892 87.0594C629.34 87.704 627.649 88.0058 625.951 87.9412C624.253 87.8765 622.594 87.4472 621.103 86.6868C619.612 85.9263 618.33 84.8551 617.355 83.5567C616.381 82.2583 615.741 80.7676 615.486 79.2009C615.486 80.8341 613.937 82.0413 612.465 82.9408C610.292 84.5177 607.605 85.353 604.851 85.3078C601.247 84.9291 598.556 82.065 595.181 80.8341C595.703 81.9138 595.79 83.1327 595.426 84.2674C595.062 85.4021 594.272 86.3765 593.201 87.0121C590.999 88.2276 588.373 88.5848 585.891 88.0062C587.541 88.3139 586.145 105.428 586.12 106.942C585.887 112.247 586.023 117.561 586.526 122.849C587.744 132.293 600.46 134.755 600.46 134.755Z" fill="white"/>
<path d="M611.475 161.006C600.587 161.006 597.135 151.253 597.11 151.135C597.072 150.971 597.072 150.802 597.11 150.638L599.039 135.655C595.714 134.755 586.348 131.489 585.231 122.731C584.746 117.797 584.602 112.84 584.8 107.889V106.658C584.8 106.422 584.8 105.759 584.8 104.812C585.536 93.3321 585.307 89.7342 584.952 88.7874C584.764 88.6558 584.621 88.4763 584.54 88.2705C584.459 88.0647 584.443 87.8414 584.495 87.6276C584.522 87.4747 584.582 87.3286 584.672 87.1982C584.762 87.0678 584.879 86.956 585.017 86.8695C585.155 86.783 585.311 86.7238 585.474 86.6954C585.637 86.667 585.805 86.6701 585.967 86.7044V86.7044C588.124 87.1944 590.399 86.9069 592.338 85.8996C593.162 85.4152 593.774 84.6718 594.063 83.8038C594.351 82.9357 594.298 82 593.911 81.1656C593.783 80.9524 593.728 80.7073 593.755 80.4639C593.782 80.2206 593.889 79.991 594.062 79.8068C594.234 79.6225 594.464 79.4926 594.719 79.435C594.974 79.3774 595.241 79.3948 595.485 79.485C596.914 80.0628 598.275 80.7767 599.546 81.6153C601.097 82.7727 602.912 83.5825 604.851 83.9823C607.298 83.9998 609.682 83.2588 611.628 81.8757C613.278 80.8815 614.166 79.9821 614.166 79.1299C614.171 78.8296 614.296 78.5419 614.517 78.3231C614.738 78.1042 615.038 77.9699 615.359 77.9464C615.677 77.9192 615.994 78.0073 616.245 78.1924C616.495 78.3775 616.66 78.6454 616.704 78.9406C616.909 80.3394 617.46 81.6746 618.313 82.8409C619.166 84.0072 620.298 84.9727 621.62 85.6613C622.941 86.3498 624.417 86.7426 625.929 86.8086C627.441 86.8746 628.949 86.6121 630.334 86.0416C630.607 85.9228 630.917 85.9005 631.207 85.9788C631.496 86.0572 631.745 86.2309 631.907 86.4677C632.071 86.7019 632.14 86.9825 632.103 87.2598C632.066 87.537 631.925 87.7931 631.704 87.9826C628.878 90.3873 626.994 93.6027 626.349 97.1194C625.613 101.167 628.126 106.587 629.953 110.327L630.182 110.777C630.286 110.989 630.405 111.195 630.537 111.393C631.086 112.088 631.436 112.903 631.552 113.76C631.552 113.76 631.552 113.76 629.775 150.046C629.775 150.354 629.445 158.094 615.511 160.793C614.177 160.994 612.825 161.065 611.475 161.006V161.006ZM599.597 150.638C600.629 153.472 602.773 155.836 605.599 157.255C608.424 158.673 611.721 159.041 614.826 158.283C626.654 155.916 627.06 149.999 627.085 149.738C627.11 149.478 628.836 114.044 628.862 113.523C628.862 113.523 628.43 112.813 628.227 112.481C628.023 112.204 627.845 111.911 627.694 111.606L627.491 111.18C625.537 107.014 622.846 101.356 623.709 96.5986C624.195 93.8653 625.35 91.2732 627.085 89.0241C624.726 89.1566 622.372 88.6817 620.283 87.6512C617.978 86.4311 616.141 84.5687 615.029 82.3254C614.399 82.9095 613.701 83.4256 612.948 83.864C610.507 85.5202 607.536 86.3548 604.521 86.231C602.195 85.8275 600.004 84.9193 598.125 83.5799L596.754 82.7515C596.681 83.7405 596.369 84.7012 595.841 85.5619C595.314 86.4227 594.585 87.1612 593.708 87.7222C591.884 88.8113 589.725 89.3104 587.566 89.1425C587.901 94.3726 587.808 99.619 587.287 104.836C587.287 105.735 587.287 106.351 587.287 106.587V107.795C587.101 112.651 587.245 117.513 587.719 122.352C588.81 131.086 600.409 133.453 600.638 133.477C600.944 133.544 601.214 133.714 601.396 133.954C601.578 134.193 601.661 134.487 601.627 134.779L599.597 150.638Z" fill="#212121"/>
<path d="M598.074 105.357C598.074 105.357 590.46 114.612 592.059 116.411C593.658 118.21 598.15 117.405 598.15 117.405" fill="white"/>
<path d="M595.917 118.754C595.042 118.813 594.164 118.694 593.344 118.404C592.524 118.113 591.782 117.659 591.17 117.073C589.444 114.99 593.505 109.144 597.186 104.599C597.388 104.348 597.688 104.182 598.021 104.138C598.355 104.093 598.693 104.174 598.962 104.362C599.099 104.454 599.214 104.57 599.3 104.703C599.387 104.837 599.444 104.986 599.468 105.14C599.492 105.295 599.482 105.453 599.438 105.604C599.395 105.755 599.32 105.896 599.216 106.019C595.841 110.209 593.049 114.754 593.252 115.772C593.861 116.458 596.475 116.458 598.023 116.198C598.187 116.166 598.355 116.166 598.519 116.195C598.682 116.225 598.838 116.284 598.977 116.37C599.116 116.456 599.236 116.566 599.329 116.695C599.422 116.824 599.487 116.968 599.521 117.121C599.554 117.275 599.554 117.433 599.52 117.587C599.487 117.741 599.421 117.887 599.327 118.017C599.232 118.147 599.111 118.258 598.97 118.344C598.829 118.43 598.671 118.489 598.506 118.517C597.652 118.67 596.786 118.75 595.917 118.754V118.754Z" fill="#212121"/>
<path d="M600.46 134.755C600.46 134.755 610.613 134.755 615.257 132.199C615.257 132.199 611.298 143.253 600.333 145.975L600.46 134.755Z" fill="#212121"/>
<path d="M600.333 147.158C600.05 147.164 599.773 147.08 599.546 146.922C599.39 146.812 599.265 146.668 599.181 146.503C599.097 146.338 599.057 146.157 599.064 145.975L599.191 134.755C599.191 134.441 599.325 134.14 599.563 133.918C599.801 133.696 600.123 133.572 600.46 133.572C600.993 133.572 610.333 133.572 614.597 131.205C614.81 131.067 615.062 130.994 615.321 130.994C615.579 130.994 615.832 131.067 616.044 131.205C616.241 131.361 616.385 131.567 616.457 131.799C616.529 132.03 616.527 132.276 616.45 132.506C616.273 132.98 612.135 144.176 600.638 147.064L600.333 147.158ZM601.704 135.939V144.365C606.577 142.413 610.546 138.905 612.897 134.471C609.248 135.411 605.488 135.928 601.704 136.01V135.939Z" fill="#212121"/>
<path d="M685.335 270.552H685.208C683.559 270.362 644.979 266.196 632.72 259.782C632.572 259.708 632.442 259.607 632.338 259.485C632.233 259.363 632.156 259.223 632.111 259.073C632.066 258.922 632.054 258.765 632.076 258.61C632.098 258.456 632.152 258.307 632.237 258.172C632.407 257.904 632.682 257.708 633.003 257.624C633.325 257.54 633.669 257.575 633.963 257.722C645.766 263.9 685.107 268.137 685.488 268.185C685.824 268.204 686.139 268.346 686.363 268.582C686.586 268.817 686.701 269.125 686.68 269.439C686.66 269.753 686.507 270.047 686.255 270.255C686.003 270.464 685.672 270.571 685.335 270.552V270.552Z" fill="#212121"/>
<path d="M675.056 161.408C675.056 161.408 751.606 263.19 718.813 289.512C688.762 313.584 622.364 273.605 622.364 273.605L626.374 239.804C626.374 239.804 678.939 267.096 679.802 254.385C681.046 235.685 655.284 210.145 655.284 210.145C652.968 206.004 651.568 201.471 651.167 196.815C650.765 192.159 651.371 187.476 652.949 183.043C654.448 178.022 657.248 173.422 661.104 169.649C664.959 165.876 669.751 163.046 675.056 161.408V161.408Z" fill="#00E88F"/>
<path d="M555.636 243.449C555.471 243.426 555.313 243.373 555.17 243.292C555.027 243.212 554.902 243.106 554.803 242.981C554.704 242.856 554.633 242.713 554.593 242.562C554.553 242.411 554.545 242.254 554.57 242.1C556.931 227.33 568.276 170.923 568.403 170.355C568.471 170.051 568.662 169.783 568.936 169.607C569.21 169.43 569.546 169.359 569.875 169.408C570.207 169.471 570.498 169.653 570.688 169.914C570.878 170.175 570.95 170.495 570.891 170.805C570.764 171.373 559.418 227.614 557.083 242.455C557.027 242.763 556.845 243.039 556.575 243.224C556.305 243.41 555.969 243.49 555.636 243.449V243.449Z" fill="#212121"/>
<path d="M544.951 288.068H621.273C622.694 288.043 624.092 287.724 625.366 287.134C626.639 286.544 627.756 285.697 628.635 284.655C629.514 283.613 630.134 282.402 630.45 281.109C630.766 279.816 630.769 278.474 630.461 277.179L614.242 204.015C613.777 201.916 612.563 200.026 610.797 198.654C609.031 197.283 606.819 196.51 604.521 196.464H529.316C527.809 196.486 526.326 196.821 524.975 197.445C523.625 198.068 522.44 198.964 521.506 200.068C520.573 201.172 519.915 202.456 519.58 203.826C519.245 205.196 519.242 206.619 519.57 207.991L535.763 280.919C536.173 282.917 537.313 284.721 538.988 286.024C540.663 287.327 542.77 288.049 544.951 288.068Z" fill="white"/>
<path d="M621.273 289.133H544.951C542.508 289.102 540.15 288.291 538.27 286.835C536.39 285.379 535.102 283.366 534.621 281.132L518.453 208.204C518.095 206.634 518.119 205.008 518.523 203.448C518.927 201.887 519.701 200.431 520.788 199.186C521.815 197.999 523.114 197.04 524.59 196.381C526.065 195.722 527.68 195.378 529.316 195.375H604.521C607.092 195.409 609.572 196.265 611.549 197.798C613.526 199.331 614.88 201.45 615.384 203.801L631.603 276.943C631.943 278.434 631.921 279.978 631.539 281.46C631.157 282.943 630.425 284.327 629.395 285.511C628.413 286.639 627.175 287.548 625.771 288.174C624.366 288.801 622.83 289.128 621.273 289.133V289.133ZM529.316 197.552C528.025 197.552 526.751 197.823 525.587 198.343C524.423 198.863 523.399 199.62 522.59 200.559C521.739 201.542 521.13 202.688 520.805 203.915C520.481 205.142 520.449 206.42 520.712 207.66L536.905 280.612C537.271 282.359 538.271 283.936 539.736 285.078C541.201 286.22 543.042 286.858 544.951 286.884H621.273C622.486 286.878 623.683 286.62 624.776 286.129C625.869 285.637 626.831 284.925 627.593 284.044C628.407 283.113 628.988 282.024 629.291 280.857C629.594 279.689 629.612 278.473 629.344 277.298L613.1 204.133C612.705 202.273 611.638 200.595 610.076 199.38C608.515 198.165 606.554 197.487 604.521 197.458L529.316 197.552Z" fill="#212121"/>
<path d="M636.984 251.331C637.424 248.774 637.216 246.155 636.375 243.686C635.543 242.027 634.4 240.52 632.999 239.236C630.616 236.869 628.073 234.647 625.384 232.585C622.846 230.738 619.978 228.939 616.932 229.555C617.872 233.796 620.445 237.568 624.166 240.159C622.949 238.803 621.335 237.808 619.521 237.295C618.303 236.94 616.653 236.987 616.146 238.123C616.029 238.489 615.993 238.872 616.041 239.251C616.089 239.63 616.22 239.995 616.425 240.325C617.845 243.255 620.026 245.81 622.77 247.757L619.826 246.006C619.074 245.49 618.206 245.142 617.288 244.988C616.836 244.919 616.372 244.988 615.965 245.184C615.558 245.38 615.23 245.693 615.029 246.077C614.844 246.717 614.916 247.399 615.232 247.994C615.998 249.699 617.265 251.167 618.887 252.231C617.826 251.385 616.55 250.806 615.181 250.55C614.49 250.454 613.784 250.592 613.192 250.939C612.601 251.287 612.163 251.821 611.958 252.444C611.882 253.158 612.041 253.876 612.415 254.503C614.597 258.551 619.801 259.001 622.339 262.409C624.242 264.942 623.354 267.664 627.212 269.203C636.857 272.919 636.451 256.728 636.984 251.331Z" fill="white"/>
<path d="M630.004 270.93C628.917 270.914 627.845 270.688 626.857 270.268C625.783 269.863 624.832 269.22 624.084 268.395C623.337 267.57 622.816 266.588 622.567 265.534C622.309 264.698 621.924 263.901 621.425 263.167C620.278 261.876 618.851 260.827 617.237 260.089C614.815 259.016 612.791 257.294 611.425 255.142C610.885 254.287 610.679 253.283 610.841 252.302C611.064 251.51 611.555 250.806 612.24 250.294C612.926 249.783 613.77 249.491 614.648 249.461C614.475 249.163 614.322 248.855 614.191 248.538C613.733 247.669 613.651 246.669 613.963 245.745C614.225 245.179 614.662 244.699 615.218 244.366C615.774 244.033 616.424 243.862 617.085 243.875C616.407 242.932 615.821 241.934 615.333 240.893C615.042 240.419 614.865 239.893 614.812 239.35C614.76 238.806 614.833 238.259 615.029 237.745C615.321 237.18 615.791 236.712 616.376 236.403C616.961 236.094 617.634 235.959 618.303 236.017C617.092 234.147 616.233 232.097 615.765 229.957C615.692 229.803 615.655 229.636 615.656 229.467C615.657 229.298 615.695 229.131 615.77 228.978C615.844 228.824 615.952 228.686 616.086 228.573C616.221 228.461 616.38 228.376 616.552 228.324C620.181 227.614 623.532 229.697 626.044 231.59C628.796 233.679 631.391 235.941 633.811 238.36C635.317 239.721 636.547 241.325 637.441 243.094C638.375 245.724 638.611 248.527 638.126 251.26C638.126 251.947 638.126 252.799 637.948 253.769C637.644 259.214 637.136 267.427 632.872 269.96C632.036 270.535 631.04 270.872 630.004 270.93V270.93ZM614.978 251.686C614.632 251.665 614.287 251.745 613.992 251.915C613.696 252.085 613.464 252.336 613.328 252.633C613.304 253.098 613.428 253.559 613.684 253.959C614.843 255.693 616.519 257.074 618.506 257.935C620.484 258.813 622.22 260.1 623.582 261.699C624.237 262.633 624.733 263.655 625.054 264.729C625.175 265.474 625.504 266.177 626.007 266.767C626.511 267.356 627.171 267.813 627.923 268.09C628.485 268.382 629.119 268.536 629.763 268.536C630.407 268.536 631.04 268.382 631.603 268.09C634.852 266.196 635.334 258.125 635.613 253.888C635.613 252.87 635.613 251.97 635.791 251.284C636.212 248.911 636.029 246.478 635.258 244.183C634.497 242.65 633.438 241.262 632.136 240.088C629.755 237.756 627.211 235.574 624.521 233.555C622.853 232.077 620.766 231.075 618.506 230.667C619.318 233.164 620.744 235.449 622.669 237.342C623.622 237.885 624.479 238.564 625.207 239.354C625.417 239.572 625.534 239.854 625.534 240.147C625.534 240.44 625.417 240.723 625.207 240.94C624.997 241.155 624.709 241.289 624.399 241.315C624.089 241.342 623.779 241.258 623.532 241.082C622.685 240.509 621.888 239.876 621.146 239.189C620.549 238.849 619.909 238.579 619.242 238.384C618.43 238.171 617.542 238.242 617.415 238.549C617.342 238.985 617.441 239.431 617.694 239.804C619.007 242.564 621.05 244.966 623.633 246.787C623.767 246.874 623.88 246.985 623.967 247.114C624.054 247.243 624.112 247.386 624.138 247.536C624.164 247.687 624.157 247.84 624.118 247.988C624.08 248.135 624.01 248.274 623.912 248.396C623.727 248.649 623.443 248.825 623.121 248.887C622.799 248.949 622.464 248.892 622.186 248.728L619.242 247C618.674 246.588 618.015 246.297 617.313 246.148C617.139 246.111 616.957 246.123 616.79 246.182C616.624 246.241 616.479 246.344 616.374 246.479C616.321 246.837 616.393 247.202 616.577 247.52C617.19 248.914 618.2 250.125 619.496 251.024L619.801 251.237C619.937 251.324 620.053 251.436 620.143 251.566C620.232 251.696 620.293 251.842 620.321 251.994C620.349 252.146 620.345 252.302 620.308 252.452C620.271 252.603 620.202 252.745 620.105 252.87C619.915 253.126 619.625 253.301 619.297 253.359C618.969 253.416 618.63 253.351 618.354 253.178L618.024 252.965C617.216 252.342 616.258 251.911 615.232 251.71L614.978 251.686Z" fill="#212121"/>
<path d="M520.762 246.242C521.143 241.343 522.717 235.922 527.159 233.46C528.532 232.724 530.082 232.323 531.666 232.294C533.25 232.265 534.816 232.609 536.22 233.295C536.477 233.389 536.709 233.535 536.898 233.724C537.087 233.912 537.228 234.138 537.311 234.383C537.489 235.165 536.727 235.804 536.042 236.206C534.573 237.066 532.973 237.712 531.296 238.123C532.662 238.019 534.029 238.314 535.207 238.967C536.385 239.621 537.315 240.6 537.869 241.769C536.216 243.582 533.902 244.763 531.372 245.082C532.212 244.874 533.1 244.907 533.92 245.177C534.74 245.448 535.453 245.943 535.966 246.597C537.616 248.822 536.296 249.438 534.494 250.763C535.285 250.606 536.11 250.681 536.854 250.976C537.231 251.136 537.549 251.397 537.766 251.726C537.983 252.055 538.089 252.437 538.073 252.823C537.946 254.243 536.093 254.693 534.798 255.403C533.755 255.994 532.965 256.907 532.565 257.983C532.418 258.601 532.206 259.203 531.93 259.782C529.392 264.019 523.757 260.492 522.361 257.415C520.931 253.851 520.384 250.031 520.762 246.242Z" fill="white"/>
<path d="M528.631 262.93H528.326C526.794 262.73 525.341 262.174 524.099 261.314C522.857 260.454 521.867 259.316 521.219 258.006C519.702 254.231 519.113 250.187 519.493 246.171V246.171C519.849 241.437 521.346 235.307 526.524 232.443C528.081 231.605 529.84 231.149 531.638 231.116C533.435 231.083 535.212 231.474 536.803 232.253C537.23 232.425 537.609 232.684 537.912 233.012C538.216 233.34 538.435 233.728 538.555 234.147C538.707 234.81 538.555 236.064 536.727 237.2L535.61 237.816C537.137 238.586 538.344 239.811 539.037 241.295C539.126 241.498 539.155 241.72 539.119 241.937C539.083 242.154 538.985 242.357 538.834 242.526C538.012 243.464 537.025 244.265 535.915 244.893C536.341 245.197 536.71 245.565 537.006 245.982C538.377 247.805 538.149 249.035 537.413 249.959C538.019 250.222 538.528 250.65 538.871 251.186C539.215 251.722 539.379 252.341 539.342 252.965C539.189 254.716 537.514 255.497 536.321 256.042L535.458 256.468C534.665 256.903 534.07 257.593 533.783 258.409C533.709 258.586 533.649 258.768 533.605 258.953C533.491 259.456 533.303 259.942 533.047 260.397C532.623 261.15 531.989 261.783 531.212 262.229C530.434 262.675 529.543 262.917 528.631 262.93V262.93ZM522.031 246.361C521.671 249.994 522.183 253.657 523.529 257.083C523.999 257.987 524.693 258.774 525.554 259.379C526.414 259.984 527.417 260.39 528.478 260.563C528.97 260.575 529.454 260.454 529.873 260.215C530.292 259.975 530.628 259.628 530.839 259.214C530.979 258.924 531.09 258.623 531.169 258.314C531.169 258.077 531.296 257.864 531.372 257.628C531.858 256.277 532.849 255.135 534.164 254.409L535.179 253.888C536.143 253.462 536.778 253.13 536.829 252.728C536.88 252.326 536.6 252.207 536.296 252.065C535.786 251.883 535.231 251.842 534.697 251.947C534.423 251.984 534.144 251.936 533.902 251.811C533.66 251.686 533.468 251.491 533.356 251.255C533.244 251.019 533.218 250.756 533.281 250.504C533.344 250.253 533.494 250.028 533.707 249.864L534.189 249.509C535.737 248.396 535.737 248.396 534.925 247.307C534.113 246.219 533.275 246.077 531.549 246.29C531.382 246.313 531.211 246.304 531.048 246.263C530.884 246.223 530.731 246.152 530.598 246.054C530.465 245.957 530.355 245.835 530.274 245.697C530.193 245.558 530.144 245.405 530.128 245.248C530.085 244.937 530.175 244.623 530.38 244.375C530.585 244.127 530.887 243.964 531.22 243.923C533.143 243.671 534.926 242.84 536.296 241.556C535.813 240.767 535.096 240.124 534.232 239.704C533.368 239.284 532.393 239.105 531.423 239.189C531.105 239.224 530.784 239.146 530.525 238.971C530.266 238.795 530.088 238.535 530.027 238.242C529.964 237.948 530.023 237.642 530.193 237.387C530.363 237.132 530.63 236.947 530.94 236.869C532.491 236.484 533.971 235.886 535.331 235.094C535.839 234.81 536.017 234.573 536.042 234.478L535.585 234.218C534.38 233.622 533.033 233.322 531.669 233.347C530.306 233.372 528.972 233.72 527.793 234.36C523.554 236.727 522.311 242.1 522.006 246.195L522.031 246.361Z" fill="#212121"/>
<path d="M586.881 109.712C585.023 109.712 583.208 109.198 581.663 108.236C580.119 107.274 578.915 105.906 578.205 104.305C577.494 102.705 577.308 100.944 577.67 99.2453C578.033 97.5464 578.927 95.9859 580.24 94.7611C581.554 93.5362 583.227 92.7021 585.049 92.3642C586.87 92.0263 588.759 92.1997 590.475 92.8626C592.191 93.5254 593.657 94.648 594.689 96.0882C595.721 97.5285 596.272 99.2217 596.272 100.954C596.265 103.275 595.274 105.499 593.514 107.14C591.754 108.781 589.369 109.706 586.881 109.712V109.712ZM586.881 94.5629C585.525 94.5629 584.201 94.9377 583.074 95.64C581.947 96.3422 581.068 97.3404 580.55 98.5082C580.031 99.676 579.895 100.961 580.16 102.201C580.424 103.44 581.077 104.579 582.035 105.473C582.994 106.367 584.215 106.976 585.544 107.222C586.873 107.469 588.251 107.342 589.503 106.858C590.756 106.375 591.826 105.556 592.579 104.505C593.332 103.454 593.734 102.218 593.734 100.954C593.727 99.2608 593.003 97.6389 591.719 96.4417C590.436 95.2445 588.696 94.5692 586.881 94.5629V94.5629Z" fill="#212121"/>
<path d="M607.795 109.712C605.938 109.712 604.122 109.198 602.578 108.236C601.033 107.274 599.83 105.906 599.119 104.305C598.408 102.705 598.222 100.944 598.584 99.2453C598.947 97.5464 599.841 95.9859 601.155 94.7611C602.468 93.5362 604.141 92.7021 605.963 92.3642C607.785 92.0263 609.673 92.1997 611.389 92.8626C613.105 93.5254 614.572 94.648 615.604 96.0882C616.635 97.5285 617.186 99.2217 617.186 100.954C617.186 103.277 616.197 105.504 614.436 107.147C612.674 108.789 610.286 109.712 607.795 109.712V109.712ZM607.795 94.5629C606.44 94.5629 605.115 94.9377 603.988 95.64C602.861 96.3422 601.982 97.3404 601.464 98.5082C600.945 99.676 600.809 100.961 601.074 102.201C601.338 103.44 601.991 104.579 602.949 105.473C603.908 106.367 605.129 106.976 606.458 107.222C607.788 107.469 609.165 107.342 610.418 106.858C611.67 106.375 612.74 105.556 613.493 104.505C614.246 103.454 614.648 102.218 614.648 100.954C614.648 99.2589 613.926 97.6334 612.641 96.4348C611.356 95.2363 609.613 94.5629 607.795 94.5629Z" fill="#212121"/>
<path d="M599.394 124.174C596.144 124.114 592.951 123.37 590.054 121.997C589.766 121.838 589.555 121.582 589.465 121.282C589.376 120.982 589.414 120.662 589.571 120.387C589.737 120.115 590.011 119.914 590.335 119.83C590.658 119.745 591.004 119.784 591.297 119.937C591.779 120.174 603.074 125.95 609.978 116.198C610.163 115.934 610.453 115.75 610.784 115.685C611.115 115.621 611.459 115.682 611.742 115.854C612.025 116.027 612.222 116.297 612.291 116.606C612.36 116.914 612.295 117.236 612.11 117.499C610.799 119.55 608.936 121.245 606.705 122.416C604.474 123.587 601.954 124.193 599.394 124.174V124.174Z" fill="#212121"/>
<path d="M599.673 102.137H595.003C594.666 102.137 594.344 102.013 594.106 101.791C593.868 101.569 593.734 101.268 593.734 100.954C593.734 100.64 593.868 100.339 594.106 100.117C594.344 99.8951 594.666 99.7704 595.003 99.7704H599.673C600.01 99.7704 600.332 99.8951 600.57 100.117C600.808 100.339 600.942 100.64 600.942 100.954C600.936 101.266 600.8 101.563 600.563 101.784C600.327 102.005 600.008 102.131 599.673 102.137Z" fill="#212121"/>
<path d="M634.649 106.871C634.54 106.894 634.427 106.894 634.319 106.871L615.587 102.137C615.251 102.056 614.963 101.853 614.787 101.573C614.61 101.294 614.561 100.96 614.648 100.646C614.736 100.332 614.953 100.064 615.253 99.8994C615.553 99.7352 615.911 99.6888 616.247 99.7704L634.979 104.504C635.301 104.588 635.575 104.786 635.741 105.056C635.907 105.326 635.953 105.647 635.867 105.948C635.809 106.209 635.656 106.444 635.434 106.612C635.212 106.78 634.935 106.872 634.649 106.871V106.871Z" fill="#212121"/>
<path d="M624.166 108.528C624.669 106.842 625.736 105.349 627.212 104.268C628.338 103.381 629.655 102.73 631.073 102.359C632.492 101.987 633.979 101.904 635.435 102.114C636.887 102.686 638.088 103.698 638.844 104.988C639.6 106.277 639.865 107.767 639.598 109.215C639.389 111.183 638.613 113.063 637.353 114.654C636.094 116.246 634.396 117.491 632.441 118.257C631.157 118.685 629.795 118.868 628.435 118.795C627.074 118.722 625.743 118.394 624.522 117.831" fill="white"/>
<path d="M629.065 119.985C627.304 119.982 625.567 119.602 623.989 118.872C623.838 118.805 623.704 118.709 623.594 118.592C623.484 118.475 623.4 118.338 623.348 118.19C623.296 118.042 623.277 117.886 623.291 117.73C623.305 117.575 623.352 117.424 623.43 117.286C623.503 117.146 623.605 117.021 623.73 116.918C623.855 116.815 624.001 116.736 624.159 116.685C624.317 116.634 624.484 116.613 624.651 116.623C624.818 116.633 624.981 116.673 625.131 116.742C626.2 117.233 627.363 117.521 628.552 117.591C629.741 117.66 630.934 117.508 632.06 117.144C633.788 116.442 635.286 115.326 636.401 113.908C637.516 112.49 638.207 110.821 638.405 109.073C638.628 107.901 638.427 106.694 637.835 105.64C637.242 104.586 636.291 103.745 635.131 103.25C633.865 103.104 632.581 103.202 631.358 103.54C630.135 103.879 629 104.448 628.024 105.215C626.787 106.14 625.898 107.408 625.486 108.836C625.441 108.992 625.364 109.137 625.258 109.265C625.153 109.392 625.022 109.499 624.872 109.579C624.722 109.66 624.557 109.712 624.386 109.732C624.215 109.753 624.041 109.742 623.874 109.7C623.708 109.658 623.552 109.586 623.415 109.488C623.278 109.389 623.163 109.267 623.077 109.127C622.991 108.988 622.936 108.834 622.913 108.674C622.891 108.515 622.903 108.352 622.948 108.197C623.54 106.315 624.758 104.658 626.425 103.463C627.708 102.457 629.21 101.724 630.828 101.315C632.445 100.906 634.139 100.832 635.791 101.096C637.526 101.741 638.974 102.917 639.896 104.431C640.819 105.946 641.161 107.708 640.867 109.428C640.639 111.611 639.779 113.695 638.38 115.459C636.981 117.222 635.095 118.598 632.923 119.44C631.681 119.832 630.375 120.016 629.065 119.985V119.985Z" fill="#212121"/>
<path d="M671.959 258.172C660.258 258.172 643.126 249.343 640.664 248.041C640.519 247.964 640.392 247.86 640.29 247.736C640.188 247.613 640.113 247.472 640.069 247.321C640.026 247.171 640.014 247.014 640.036 246.859C640.057 246.704 640.111 246.555 640.195 246.42C640.278 246.285 640.389 246.166 640.521 246.071C640.654 245.976 640.805 245.906 640.967 245.865C641.128 245.824 641.296 245.814 641.462 245.834C641.628 245.854 641.788 245.904 641.933 245.982C650.131 250.337 672.771 260.184 678.736 253.627C684.701 247.071 666.832 214.619 659.421 202.689C659.292 202.422 659.273 202.12 659.369 201.841C659.464 201.562 659.668 201.326 659.939 201.178C660.211 201.031 660.532 200.983 660.839 201.043C661.146 201.104 661.419 201.268 661.604 201.505C664.421 206.05 688.99 246.029 680.69 255.142C679.562 256.213 678.195 257.039 676.686 257.563C675.177 258.086 673.564 258.294 671.959 258.172Z" fill="#212121"/>
<path d="M680.894 298.412H680.716C661.959 295.784 637.568 281.843 636.502 281.322C636.36 281.24 636.237 281.132 636.139 281.005C636.042 280.879 635.973 280.735 635.935 280.584C635.897 280.432 635.892 280.275 635.919 280.121C635.947 279.968 636.007 279.821 636.095 279.689C636.181 279.554 636.295 279.437 636.431 279.344C636.566 279.251 636.721 279.186 636.884 279.15C637.048 279.115 637.218 279.111 637.383 279.138C637.548 279.166 637.706 279.224 637.847 279.31C638.075 279.428 662.847 293.512 680.995 296.092C681.161 296.109 681.321 296.158 681.465 296.235C681.61 296.312 681.736 296.415 681.836 296.54C681.936 296.664 682.007 296.806 682.046 296.957C682.085 297.108 682.09 297.265 682.061 297.418C682.016 297.682 681.876 297.924 681.664 298.105C681.452 298.285 681.18 298.394 680.894 298.412V298.412Z" fill="#212121"/>
<path d="M19.071 329.612L2.00952 397.238L90.1878 416.586L107.249 348.961L19.071 329.612Z" fill="white"/>
<path d="M90.2181 417.686H89.9389L1.76403 398.324C1.61447 398.294 1.47302 398.235 1.34809 398.153C1.22316 398.07 1.1173 397.965 1.03679 397.844C0.95629 397.722 0.902794 397.587 0.879477 397.446C0.85616 397.305 0.863493 397.161 0.901058 397.022L17.9573 329.396C18.0297 329.118 18.2168 328.877 18.4781 328.726C18.7395 328.576 19.0539 328.527 19.3533 328.591L107.528 347.954C107.678 347.984 107.82 348.041 107.947 348.122C108.073 348.203 108.181 348.307 108.264 348.427C108.421 348.677 108.466 348.975 108.391 349.256L91.3349 416.882C91.2616 417.154 91.0803 417.391 90.8273 417.544C90.643 417.645 90.4316 417.694 90.2181 417.686V417.686ZM3.41382 396.383L89.3552 415.319L105.878 349.8L19.9625 330.864L3.41382 396.383Z" fill="#212121"/>
<path d="M72.6796 316.567C72.6796 316.567 71.2075 351.481 67.3241 349.398C62.2478 346.628 64.3545 338.58 64.3545 338.58L47.1459 335.195C47.1459 335.195 54.4558 312.022 54.938 311.241C55.4203 310.46 72.6796 316.567 72.6796 316.567Z" fill="white"/>
<path d="M67.6541 350.557C67.3321 350.557 67.0163 350.475 66.7404 350.321C62.0702 347.812 62.5524 341.894 62.9839 339.432L46.9175 336.261C46.7598 336.225 46.6113 336.161 46.4805 336.072C46.3498 335.982 46.2394 335.87 46.1561 335.74C46.0426 335.466 46.0426 335.162 46.1561 334.888C48.8973 326.177 53.5928 311.478 54.0751 310.697C54.5573 309.916 55.0396 309.111 73.2126 315.573C73.4441 315.645 73.644 315.786 73.7815 315.974C73.919 316.162 73.9866 316.387 73.9741 316.614C73.568 326.082 72.2481 348.498 68.644 350.344C68.345 350.508 67.9996 350.582 67.6541 350.557V350.557ZM48.6181 334.367L64.583 337.515C64.895 337.585 65.1671 337.763 65.3444 338.012C65.4562 338.278 65.4562 338.574 65.3444 338.841C65.3444 338.841 63.5423 345.752 67.4511 348.309C69.1262 345.942 70.7506 330.887 71.3598 317.348C64.8368 314.981 57.8061 312.78 55.6233 312.354C54.7857 314.981 51.207 326.201 48.6181 334.367V334.367Z" fill="#212121"/>
<path d="M99.2539 512.77C99.2539 512.77 97.8325 534.642 97.9087 542.926C97.9848 551.211 97.9086 558.998 108.34 557.128C114.026 556.158 145.245 548.796 142.377 543.376C139.509 537.955 119.229 536.559 119.229 536.559L121.056 511.563" fill="white"/>
<path d="M105.574 558.549C103.678 558.632 101.814 558.077 100.32 556.986C96.8681 554.335 96.8173 548.962 96.7665 543.281V542.95C96.7665 534.713 98.0864 512.936 98.0864 512.699C98.0961 512.559 98.1353 512.422 98.2018 512.297C98.2683 512.171 98.3609 512.058 98.4741 511.966C98.5873 511.874 98.7189 511.803 98.8614 511.758C99.004 511.713 99.1546 511.695 99.3047 511.705C99.4581 511.708 99.6094 511.74 99.7489 511.799C99.8885 511.859 100.013 511.945 100.116 512.051C100.218 512.158 100.296 512.283 100.344 512.419C100.392 512.555 100.41 512.699 100.396 512.841C100.396 513.054 99.0001 534.76 99.0763 542.926V543.258C99.0763 548.418 99.0763 553.317 101.792 555.329C102.722 555.889 103.771 556.253 104.867 556.396C105.963 556.539 107.079 556.458 108.137 556.158C115.498 554.88 139.027 548.773 141.285 544.583C141.348 544.487 141.381 544.376 141.381 544.264C141.381 544.151 141.348 544.04 141.285 543.944C139.407 540.417 126.691 538.263 119.102 537.742C118.797 537.718 118.514 537.583 118.314 537.366C118.115 537.149 118.015 536.868 118.036 536.583L119.864 511.587C119.889 511.304 120.03 511.041 120.256 510.852C120.483 510.663 120.778 510.562 121.082 510.569C121.389 510.593 121.675 510.727 121.878 510.944C122.082 511.16 122.188 511.441 122.173 511.729L120.422 535.659C125.118 536.062 140.727 537.79 143.265 542.997C143.483 543.393 143.597 543.831 143.597 544.275C143.597 544.72 143.483 545.158 143.265 545.554C139.788 551.992 108.747 558.217 108.442 558.265C107.497 558.44 106.537 558.535 105.574 558.549V558.549Z" fill="#212121"/>
<path d="M172.2 515.374C172.2 515.374 170.779 537.245 170.855 545.53C170.931 553.814 170.855 561.602 181.286 559.732C186.972 558.762 220.653 553.743 217.785 548.323C214.917 542.902 192.175 539.163 192.175 539.163L194.003 514.167" fill="white"/>
<path d="M178.52 561.152C176.624 561.235 174.76 560.681 173.266 559.59C169.814 556.939 169.763 551.566 169.713 545.885V545.506C169.713 537.269 171.032 515.492 171.032 515.279C171.052 514.995 171.191 514.728 171.419 514.538C171.646 514.348 171.945 514.248 172.251 514.261C172.404 514.264 172.555 514.296 172.695 514.356C172.835 514.415 172.959 514.501 173.062 514.608C173.164 514.714 173.242 514.84 173.29 514.975C173.338 515.111 173.356 515.255 173.342 515.398C173.342 515.611 171.946 537.34 172.022 545.483V545.814C172.022 550.974 172.022 555.874 174.738 557.886C175.668 558.446 176.717 558.81 177.813 558.953C178.909 559.096 180.025 559.014 181.083 558.714L182.86 558.407C209.079 554.122 215.856 551.069 216.719 549.246C216.719 549.057 216.719 548.962 216.719 548.844C214.815 545.27 200.526 541.743 191.947 540.275C191.664 540.234 191.409 540.093 191.234 539.882C191.059 539.67 190.978 539.404 191.008 539.139L192.835 514.143C192.861 513.861 193.001 513.598 193.228 513.409C193.454 513.22 193.749 513.118 194.053 513.125C194.361 513.149 194.646 513.284 194.85 513.5C195.053 513.716 195.159 513.998 195.145 514.285L193.419 538.405C198.292 539.257 216.059 542.713 218.8 547.873C219.009 548.237 219.118 548.644 219.118 549.057C219.118 549.47 219.009 549.876 218.8 550.24C216.947 553.672 206.109 556.844 183.266 560.561L181.515 560.868C180.527 561.04 179.525 561.135 178.52 561.152V561.152Z" fill="#212121"/>
<path d="M96.2335 265.889C96.2335 265.889 89.0252 498.899 92.8324 518.83C92.8324 518.83 107.477 534.239 126.463 526.546L150.499 337.562L163.19 526.381C163.19 526.381 175.347 537.648 200.83 518.924V257.651L96.2335 265.889Z" fill="#212121"/>
<path d="M174.23 530.973C169.877 531.182 165.602 529.836 162.276 527.209C162.05 527.011 161.914 526.74 161.895 526.452L150.144 350.699L127.783 526.688C127.751 526.893 127.665 527.087 127.532 527.253C127.399 527.418 127.223 527.55 127.021 527.635C107.401 535.565 92.0709 519.777 91.9187 519.611C91.7626 519.442 91.6575 519.238 91.6141 519.019C87.8576 499.207 94.736 275.357 95.0152 265.747C95.0319 265.458 95.159 265.185 95.3732 264.977C95.5874 264.768 95.8746 264.638 96.1827 264.611L200.703 256.373C200.878 256.36 201.054 256.381 201.22 256.435C201.386 256.488 201.538 256.573 201.667 256.685C201.796 256.796 201.898 256.931 201.968 257.081C202.039 257.231 202.074 257.393 202.074 257.557V518.924C202.075 519.106 202.032 519.285 201.949 519.449C201.865 519.613 201.743 519.757 201.592 519.871C189.738 528.558 180.652 530.973 174.23 530.973ZM164.408 525.812C166.464 527.375 177.682 534.192 199.536 518.356V258.93L97.5279 266.978C97.0203 283.973 90.5988 497.337 94.0761 518.285C96.0304 520.226 108.823 531.967 125.346 525.718L149.281 337.42C149.287 337.271 149.326 337.124 149.395 336.989C149.465 336.855 149.563 336.735 149.685 336.637C149.806 336.539 149.948 336.466 150.101 336.421C150.254 336.377 150.416 336.363 150.575 336.379C150.89 336.384 151.192 336.498 151.422 336.699C151.652 336.901 151.794 337.175 151.819 337.468L164.408 525.812Z" fill="#212121"/>
<path d="M309.158 165.337C309.158 165.337 323.067 157.999 324.082 157.195C325.097 156.39 329.945 144.389 330.732 143.608C331.519 142.827 333.473 141.406 334.133 143.063C334.793 144.72 333.372 153.928 333.372 153.928C333.372 153.928 350.479 141.454 351.672 142.093C352.865 142.732 353.753 144.176 351.063 147.679C348.633 150.39 345.764 152.73 342.56 154.615C342.56 154.615 348.575 160.911 347.636 163.065C346.697 165.219 323.879 179.492 323.879 179.492" fill="white"/>
<path d="M323.981 180.628C323.79 180.633 323.601 180.592 323.432 180.509C323.263 180.426 323.12 180.304 323.016 180.155C322.929 180.037 322.868 179.904 322.837 179.764C322.805 179.624 322.803 179.479 322.832 179.338C322.86 179.198 322.918 179.064 323.002 178.944C323.085 178.824 323.194 178.721 323.321 178.64C334.133 171.894 345.809 164.083 346.672 162.686C346.951 161.905 344.59 158.402 341.595 155.372C341.482 155.254 341.398 155.115 341.35 154.963C341.302 154.812 341.29 154.652 341.316 154.496C341.338 154.341 341.397 154.192 341.49 154.061C341.582 153.929 341.705 153.819 341.849 153.739C344.924 151.937 347.681 149.701 350.022 147.111C351.545 145.099 351.646 144.129 351.545 143.726C351.506 143.552 351.408 143.395 351.266 143.276C345.237 146.75 339.463 150.593 333.981 154.78C333.79 154.902 333.565 154.968 333.334 154.968C333.103 154.968 332.877 154.902 332.686 154.78C332.486 154.671 332.324 154.51 332.221 154.317C332.117 154.123 332.076 153.906 332.103 153.691C332.785 150.29 333.066 146.829 332.94 143.371C332.788 143.371 332.103 143.655 331.494 144.271C330.884 144.886 329.945 147.442 328.955 149.691C326.417 155.514 325.427 157.408 324.742 157.952C324.057 158.496 312.051 165.053 309.513 166.213C309.246 166.332 308.941 166.351 308.658 166.268C308.376 166.184 308.139 166.004 307.994 165.764C307.849 165.523 307.807 165.24 307.877 164.972C307.947 164.704 308.124 164.471 308.371 164.319C313.701 161.526 322.407 156.863 323.143 156.271C324.471 153.864 325.657 151.391 326.696 148.863C327.477 146.755 328.481 144.726 329.691 142.803C330.148 142.353 331.773 140.909 333.346 141.17C333.736 141.255 334.095 141.432 334.388 141.685C334.682 141.938 334.9 142.258 335.022 142.614C335.36 145.533 335.249 148.482 334.692 151.372C350.301 140.152 351.342 140.744 352.078 141.146C352.492 141.359 352.852 141.654 353.132 142.01C353.413 142.365 353.607 142.773 353.702 143.205C353.776 144.128 353.647 145.055 353.324 145.93C353.002 146.805 352.491 147.61 351.824 148.295C349.66 150.816 347.091 153.012 344.21 154.804C346.342 157.171 349.565 161.242 348.727 163.396C347.89 165.55 331.494 176.012 324.514 180.368C324.362 180.494 324.178 180.583 323.981 180.628V180.628Z" fill="#212121"/>
<path d="M188.799 152.2C188.799 152.2 164.154 144.673 99.2539 156.295C87.9845 158.307 82.8067 256.302 91.3095 315.241L204.993 314.366C204.993 314.366 223.749 160.366 188.799 152.2Z" fill="#00E88F"/>
<path d="M94.9645 142.117C94.9645 142.117 70.3699 215.495 68.7963 222.004C67.2226 228.513 50.5471 314.91 50.5471 314.91L76.3853 323.005C76.3853 323.005 113.848 242.242 111.462 219.566C109.077 196.89 94.9645 142.117 94.9645 142.117Z" fill="#00E88F"/>
<path d="M186.667 152.247C206.439 153.999 247.583 198.523 250.933 197.221C254.283 195.919 315.249 156.982 315.249 156.982L334.539 176.675C334.539 176.675 275.477 240.585 263.471 247.355C244.994 257.651 166.54 210.784 166.54 210.784C166.54 210.784 166.895 150.472 186.667 152.247Z" fill="#00E88F"/>
<path d="M64.4306 338.935C64.4306 338.935 56.4355 334.888 59.9635 328.023L64.4306 338.935Z" fill="white"/>
<path d="M64.4307 340.024C64.2347 340.021 64.0427 339.972 63.8723 339.882C60.7757 338.32 55.7502 333.728 58.796 327.55C58.9306 327.289 59.1707 327.089 59.4634 326.994C59.7562 326.899 60.0776 326.915 60.3569 327.041C60.6363 327.167 60.8507 327.39 60.9531 327.663C61.0554 327.936 61.0373 328.236 60.9027 328.497C57.8823 334.367 64.5829 337.965 64.8621 337.965C65.085 338.083 65.26 338.266 65.3603 338.486C65.4605 338.706 65.4805 338.95 65.417 339.182C65.3535 339.413 65.2101 339.619 65.0089 339.767C64.8077 339.915 64.5599 339.997 64.3037 340.001L64.4307 340.024Z" fill="#212121"/>
<path d="M246.694 248.751H246.466C234.054 246.384 209.764 232.987 177.936 210.879L176.489 209.861C176.236 209.702 176.06 209.457 175.998 209.178C175.937 208.899 175.995 208.609 176.159 208.37C176.321 208.138 176.573 207.974 176.862 207.912C177.151 207.85 177.454 207.895 177.708 208.038C178.269 208.384 178.811 208.755 179.332 209.151C210.805 231.093 234.765 244.443 246.847 246.668C247.149 246.726 247.415 246.892 247.586 247.132C247.758 247.371 247.82 247.664 247.76 247.947C247.693 248.167 247.555 248.362 247.364 248.506C247.173 248.65 246.939 248.736 246.694 248.751V248.751Z" fill="#212121"/>
<path d="M180.449 106.919C178.797 106.919 177.183 106.462 175.81 105.606C174.436 104.751 173.366 103.534 172.734 102.111C172.102 100.688 171.937 99.1226 172.259 97.612C172.581 96.1014 173.376 94.7138 174.544 93.6247C175.712 92.5356 177.2 91.7939 178.82 91.4934C180.44 91.1929 182.119 91.3471 183.645 91.9366C185.17 92.526 186.475 93.5241 187.392 94.8048C188.31 96.0854 188.799 97.5911 188.799 99.1313C188.799 101.197 187.92 103.177 186.354 104.638C184.788 106.098 182.664 106.919 180.449 106.919V106.919ZM180.449 93.7108C179.299 93.7108 178.176 94.0287 177.22 94.6243C176.264 95.2199 175.519 96.0665 175.079 97.057C174.639 98.0474 174.524 99.1373 174.748 100.189C174.973 101.24 175.526 102.206 176.339 102.964C177.152 103.722 178.188 104.238 179.315 104.448C180.442 104.657 181.611 104.549 182.673 104.139C183.735 103.729 184.643 103.034 185.282 102.143C185.92 101.251 186.261 100.203 186.261 99.1313C186.261 98.4195 186.111 97.7146 185.819 97.057C185.527 96.3993 185.099 95.8018 184.559 95.2984C184.019 94.7951 183.378 94.3958 182.673 94.1234C181.968 93.851 181.212 93.7108 180.449 93.7108V93.7108Z" fill="#212121"/>
<path d="M177.048 104.268C177.048 104.268 185.297 116.955 183.393 119.44C181.49 121.926 175.525 120.032 175.525 120.032" fill="white"/>
<path d="M179.814 121.807C178.21 121.77 176.619 121.515 175.093 121.05C174.757 120.946 174.478 120.722 174.319 120.427C174.159 120.132 174.132 119.79 174.243 119.476C174.354 119.162 174.594 118.902 174.911 118.753C175.228 118.605 175.594 118.579 175.931 118.683C177.581 119.227 181.312 119.867 182.353 118.541C183.012 117.405 180.043 110.919 175.982 104.67C175.894 104.54 175.834 104.395 175.807 104.243C175.78 104.091 175.785 103.936 175.823 103.786C175.861 103.636 175.93 103.495 176.027 103.37C176.124 103.246 176.247 103.141 176.388 103.061C176.529 102.978 176.687 102.922 176.852 102.897C177.017 102.871 177.185 102.876 177.348 102.911C177.511 102.946 177.664 103.011 177.8 103.102C177.936 103.192 178.051 103.307 178.139 103.439C180.677 107.463 186.591 117.097 184.408 120.009C183.856 120.633 183.15 121.123 182.349 121.437C181.549 121.75 180.679 121.877 179.814 121.807V121.807Z" fill="#212121"/>
<path d="M175.855 87.8879C181.261 92.3142 179.281 101.238 178.977 107.061C178.571 115.267 177.962 123.464 177.149 131.654C176.642 136.838 162.2 136.388 159.712 134.779L162.758 147.774L131.209 143.466L133.163 126.518C133.163 126.518 131.133 102.848 137.224 92.5273C138.993 89.5367 141.622 87.066 144.814 85.3932C148.007 83.7204 151.637 82.9121 155.296 83.0591C155.296 83.0591 170.576 83.5325 175.855 87.8879Z" fill="white"/>
<path d="M162.758 148.957H162.58L131.031 144.649C130.708 144.602 130.416 144.441 130.218 144.198C130.019 143.956 129.929 143.651 129.965 143.347L131.894 126.4C131.894 125.642 129.915 102.54 136.108 91.9592C137.976 88.7549 140.78 86.1095 144.193 84.3292C147.607 82.5489 151.492 81.7064 155.397 81.8993C155.981 81.8993 171.159 82.4201 176.692 86.9884C181.769 91.0834 181.007 98.2318 180.5 103.984C180.5 105.096 180.297 106.161 180.246 107.132C179.84 115.322 179.231 123.701 178.418 131.749C178.303 132.652 177.912 133.505 177.291 134.206C176.67 134.907 175.845 135.426 174.916 135.702C170.599 137.159 165.933 137.471 161.438 136.601L163.976 147.537C164.018 147.721 164.012 147.911 163.959 148.092C163.906 148.273 163.808 148.44 163.672 148.579C163.556 148.697 163.415 148.792 163.258 148.857C163.1 148.923 162.93 148.957 162.758 148.957V148.957ZM132.605 142.472L161.134 146.354L158.596 135.039C158.539 134.808 158.559 134.566 158.655 134.346C158.75 134.126 158.915 133.938 159.129 133.808C159.341 133.671 159.593 133.597 159.852 133.597C160.11 133.597 160.363 133.671 160.575 133.808C164.956 135.067 169.656 134.976 173.977 133.548C175.246 133.004 175.931 132.317 176.007 131.512C176.819 123.393 177.429 115.156 177.835 106.99C177.835 105.996 177.987 104.907 178.088 103.771C178.571 98.5395 179.154 91.9355 175.144 88.74C170.271 84.7398 155.524 84.2427 155.397 84.2427C151.971 84.0786 148.564 84.8203 145.569 86.3822C142.574 87.9442 140.112 90.2629 138.468 93.0717C132.63 103.037 134.534 126.21 134.559 126.4L132.605 142.472Z" fill="#212121"/>
<path d="M125.016 147.466L127.986 138.495L166.718 141.975L168.926 150.212C161.843 152.803 154.233 153.901 146.641 153.426C139.05 152.951 131.665 150.916 125.016 147.466Z" fill="white"/>
<path d="M150.499 154.733C141.393 154.693 132.438 152.554 124.432 148.508C124.172 148.377 123.97 148.166 123.858 147.911C123.747 147.657 123.735 147.374 123.823 147.111L126.691 138.14C126.782 137.88 126.964 137.657 127.209 137.507C127.453 137.356 127.745 137.287 128.036 137.311L166.845 140.744C167.101 140.766 167.344 140.862 167.54 141.019C167.735 141.176 167.874 141.386 167.936 141.619L170.169 149.857C170.239 150.121 170.209 150.399 170.084 150.645C169.959 150.891 169.747 151.089 169.484 151.206C163.487 153.598 157.021 154.799 150.499 154.733V154.733ZM126.691 146.874C132.941 149.913 139.796 151.717 146.827 152.173C153.858 152.629 160.915 151.728 167.555 149.525L165.829 143.087L129.026 139.75L126.691 146.874Z" fill="#212121"/>
<path d="M143.976 128.648C143.976 142.59 159.002 170.781 146.108 181.859C134.001 192.274 113.112 194.996 97.4772 193.386C74.634 191.019 62.6286 176.273 72.0958 155.514C76.6899 145.383 84.7865 137.027 91.5126 127.985C97.4322 120.024 102.403 111.483 106.335 102.516C109.686 94.9179 112.173 85.9469 116.691 78.8458C126.691 63.1287 144.357 56.9744 162.936 62.0399C170.906 64.2175 186.236 73.1649 182.479 82.8461C181.566 85.2131 178.444 88.7873 175.956 87.7932C175.246 92.3852 172.073 94.5866 168.215 97.5217C164.165 100.307 159.954 102.883 155.601 105.238C152.638 106.882 150.05 109.054 147.986 111.629C145.728 115.142 144.421 119.115 144.179 123.204C143.998 125.013 143.93 126.831 143.976 128.648Z" fill="white"/>
<path d="M105.878 194.996C103.03 194.993 100.183 194.851 97.3503 194.57C85.015 193.339 75.6492 188.51 70.9029 181.031C66.1566 173.551 66.385 164.911 70.9029 154.993C74.6008 147.668 79.2463 140.791 84.7358 134.518C86.6647 132.151 88.5937 129.784 90.4466 127.252C96.3063 119.351 101.233 110.883 105.142 101.995C106.234 99.4864 107.224 96.9063 108.264 94.1605C110.158 88.663 112.605 83.345 115.574 78.2778C120.132 70.6764 127.383 64.7905 136.084 61.6292C144.786 58.4678 154.395 58.2281 163.266 60.9511C169.205 62.5607 179.231 67.8865 182.886 74.6089C183.664 75.9244 184.134 77.3788 184.265 78.8762C184.396 80.3736 184.186 81.88 183.647 83.2959C182.725 85.6519 180.923 87.6187 178.571 88.8347C178.055 89.0393 177.506 89.1594 176.946 89.1898C175.88 93.2611 172.911 95.5098 169.51 98.0898L168.977 98.4922C166.334 100.424 163.543 102.173 160.626 103.723C159.205 104.528 157.783 105.333 156.387 106.09C153.547 107.712 151.073 109.835 149.103 112.339C146.978 115.695 145.751 119.478 145.524 123.37C145.313 125.138 145.22 126.917 145.245 128.696V128.696C145.692 134.373 146.781 139.99 148.494 145.454C152.123 159.207 156.108 174.805 146.971 182.759C136.336 191.872 119.686 194.996 105.878 194.996ZM150.397 61.5902C143.725 61.5952 137.176 63.2606 131.424 66.4147C125.673 69.5688 120.929 74.0971 117.681 79.5323C114.804 84.4764 112.425 89.6587 110.574 95.0127C109.584 97.6637 108.518 100.504 107.401 102.871C103.443 111.925 98.4299 120.545 92.4517 128.577C90.5989 130.944 88.6445 133.501 86.6647 135.915C81.3187 142.044 76.785 148.751 73.1618 155.893C69.0501 165.029 69.0247 173.29 73.1618 179.752C77.4767 186.593 86.1825 190.996 97.6803 192.156C111.97 193.6 133.011 191.517 145.321 180.912C153.469 173.811 149.56 159.017 146.108 145.904C144.331 140.257 143.216 134.448 142.783 128.577V128.577C142.754 126.719 142.856 124.861 143.088 123.015C143.314 118.761 144.656 114.624 146.996 110.966C149.122 108.265 151.806 105.987 154.89 104.268C156.311 103.392 157.758 102.564 159.205 101.759C162.028 100.25 164.734 98.5576 167.301 96.6933L167.834 96.3145C171.413 93.5925 173.977 91.5805 174.611 87.6985C174.642 87.5211 174.716 87.3526 174.827 87.2057C174.938 87.0588 175.083 86.9374 175.252 86.8508C175.421 86.7641 175.608 86.7144 175.801 86.7054C175.993 86.6964 176.185 86.7285 176.363 86.7991C176.72 86.9359 177.122 86.9359 177.479 86.7991C179.192 85.8496 180.501 84.3781 181.185 82.6331C181.606 81.5202 181.767 80.3363 181.658 79.1606C181.548 77.985 181.171 76.8446 180.55 75.816C177.276 69.7801 167.86 64.8093 162.479 63.3655C158.563 62.2417 154.495 61.644 150.397 61.5902V61.5902Z" fill="#212121"/>
<path d="M177.2 125.524C177.2 125.524 170.22 129.193 166.844 122.47L177.2 125.524Z" fill="white"/>
<path d="M172.987 127.701C172.186 127.707 171.39 127.596 170.626 127.37C169.519 127.009 168.507 126.431 167.658 125.676C166.809 124.921 166.142 124.005 165.702 122.991C165.631 122.85 165.59 122.696 165.581 122.54C165.573 122.384 165.598 122.228 165.655 122.08C165.711 121.933 165.798 121.798 165.911 121.682C166.024 121.566 166.16 121.472 166.311 121.405C166.463 121.338 166.627 121.3 166.795 121.292C166.963 121.285 167.13 121.308 167.288 121.361C167.446 121.413 167.591 121.495 167.715 121.6C167.84 121.705 167.94 121.832 168.012 121.973C168.302 122.688 168.751 123.337 169.328 123.88C169.905 124.422 170.598 124.845 171.362 125.121C173.123 125.503 174.971 125.276 176.566 124.482C176.712 124.407 176.873 124.36 177.039 124.343C177.206 124.326 177.374 124.34 177.534 124.384C177.694 124.428 177.844 124.502 177.974 124.6C178.104 124.698 178.212 124.819 178.292 124.956C178.376 125.088 178.43 125.236 178.452 125.389C178.473 125.541 178.461 125.697 178.416 125.845C178.371 125.994 178.294 126.132 178.189 126.252C178.085 126.371 177.956 126.47 177.809 126.542C176.324 127.282 174.671 127.68 172.987 127.701V127.701Z" fill="#212121"/>
<path d="M140.778 109.12C140.669 109.143 140.557 109.143 140.448 109.12C140.126 109.037 139.852 108.839 139.685 108.569C139.519 108.298 139.474 107.978 139.56 107.676C140.93 103.25 141.945 103.179 142.555 103.132C143.164 103.084 172.251 99.7467 187.378 98.0188C187.711 97.9785 188.048 98.063 188.314 98.2538C188.581 98.4445 188.755 98.7261 188.799 99.0366C188.835 99.3498 188.739 99.6636 188.53 99.9113C188.322 100.159 188.017 100.321 187.683 100.362C183.419 100.859 147.58 105.096 143.164 105.451C142.676 106.366 142.294 107.326 142.022 108.315C141.931 108.554 141.762 108.761 141.539 108.905C141.316 109.049 141.049 109.125 140.778 109.12V109.12Z" fill="#212121"/>
<path d="M159.966 108.931C159.8 106.866 159.027 104.884 157.733 103.203C156.925 101.792 155.898 100.5 154.687 99.368C154.077 98.8094 153.341 98.3839 152.534 98.1219C151.726 97.86 150.867 97.7682 150.017 97.8531C149.276 97.9924 148.575 98.2751 147.958 98.6828C147.342 99.0905 146.824 99.6142 146.438 100.22C145.712 101.462 145.279 102.834 145.169 104.244C144.899 107.33 145.502 110.427 146.919 113.227C148.335 116.026 150.515 118.43 153.24 120.198L152.783 119.677" fill="white"/>
<path d="M153.24 121.429C152.986 121.424 152.739 121.35 152.529 121.216C149.629 119.324 147.31 116.759 145.8 113.773C144.291 110.788 143.645 107.487 143.925 104.197C144.029 102.599 144.524 101.044 145.372 99.652C145.835 98.8906 146.47 98.2318 147.232 97.7211C147.995 97.2103 148.867 96.8596 149.788 96.6932C150.832 96.5705 151.892 96.6684 152.889 96.9799C153.886 97.2913 154.796 97.8082 155.55 98.4922C156.858 99.7032 157.962 101.092 158.824 102.611C160.289 104.463 161.169 106.66 161.362 108.954C161.337 109.263 161.192 109.551 160.953 109.765C160.714 109.979 160.399 110.104 160.068 110.114C159.901 110.111 159.737 110.078 159.584 110.015C159.431 109.953 159.293 109.863 159.178 109.751C159.062 109.639 158.971 109.507 158.911 109.362C158.85 109.217 158.821 109.063 158.824 108.907C158.65 107.067 157.939 105.307 156.768 103.818C156.029 102.506 155.088 101.302 153.976 100.244C153.502 99.8065 152.932 99.4701 152.306 99.2577C151.679 99.0452 151.011 98.9617 150.347 99.0129C149.783 99.1321 149.252 99.36 148.789 99.6821C148.326 100.004 147.94 100.413 147.656 100.883C147.014 101.968 146.641 103.173 146.565 104.41C146.33 107.091 146.799 109.785 147.931 112.26C149.063 114.734 150.824 116.914 153.062 118.612C153.22 118.624 153.373 118.666 153.513 118.735C153.652 118.805 153.775 118.899 153.875 119.014L154.331 119.511C154.535 119.727 154.647 120.005 154.647 120.293C154.647 120.58 154.535 120.858 154.331 121.074C154.19 121.206 154.019 121.307 153.83 121.369C153.641 121.43 153.439 121.451 153.24 121.429V121.429Z" fill="#212121"/>
<path d="M174.79 100.731C175.477 100.721 176.011 99.3992 175.984 97.7784C175.957 96.1576 175.378 94.8518 174.691 94.8618C174.004 94.8719 173.469 96.194 173.497 97.8148C173.524 99.4357 174.103 100.741 174.79 100.731Z" fill="#212121"/>
<path d="M89.5074 301.11C89.2155 301.117 88.9324 301.016 88.7189 300.83C88.5054 300.644 88.3785 300.388 88.3653 300.116C86.1571 272.445 90.5734 198.334 90.6242 197.6C90.6306 197.458 90.6675 197.318 90.7326 197.19C90.7977 197.061 90.8897 196.946 91.0032 196.851C91.1168 196.757 91.2495 196.684 91.3937 196.638C91.5378 196.591 91.6904 196.572 91.8425 196.582C92.1499 196.606 92.4354 196.741 92.6389 196.957C92.8424 197.173 92.9481 197.454 92.9339 197.742C92.9339 198.476 88.4668 272.422 90.675 299.95C90.696 300.235 90.5961 300.517 90.3967 300.734C90.1972 300.951 89.9143 301.086 89.6089 301.11H89.5074Z" fill="#212121"/>
<path d="M100.193 303.454C99.9162 303.415 99.6633 303.285 99.4805 303.088C99.2978 302.89 99.1972 302.638 99.1972 302.377C99.1972 302.115 99.2978 301.863 99.4805 301.665C99.6633 301.468 99.9162 301.338 100.193 301.3L201.719 296.565C201.873 296.556 202.027 296.575 202.173 296.623C202.319 296.671 202.453 296.746 202.567 296.843C202.681 296.94 202.772 297.058 202.836 297.19C202.899 297.321 202.934 297.463 202.937 297.607C202.944 297.894 202.832 298.173 202.624 298.385C202.415 298.596 202.128 298.725 201.82 298.743L100.295 303.477L100.193 303.454Z" fill="#212121"/>
</svg>
